<svg width="66" height="63" viewBox="0 0 66 63" fill="none" xmlns="http://www.w3.org/2000/svg">
<path opacity="0.2" d="M0 8.40931C0 3.76497 3.76498 0 8.40931 0H56.7628C61.4072 0 65.1721 3.76498 65.1721 8.40931V54.5904C65.1721 59.2348 61.4072 62.9997 56.7628 62.9997H8.40931C3.76498 62.9997 0 59.2348 0 54.5904V8.40931Z" fill="#76B7FA"/>
<g filter="url(#filter0_b_1136_38897)">
<path d="M30.736 16.6667C31.7754 15.7778 33.4777 15.7778 34.5322 16.6667L36.9123 18.7156C37.3642 19.1073 38.2078 19.4237 38.8103 19.4237H41.3712C42.968 19.4237 44.2786 20.7345 44.2786 22.3315V24.8927C44.2786 25.4802 44.5949 26.339 44.9866 26.791L47.0353 29.1714C47.9241 30.2109 47.9241 31.9134 47.0353 32.968L44.9866 35.3484C44.5949 35.8004 44.2786 36.6441 44.2786 37.2467V39.8079C44.2786 41.4049 42.968 42.7157 41.3712 42.7157H38.8103C38.2228 42.7157 37.3642 43.0321 36.9123 43.4238L34.5322 45.4727C33.4927 46.3616 31.7905 46.3616 30.736 45.4727L28.3559 43.4238C27.904 43.0321 27.0604 42.7157 26.4578 42.7157H23.8517C22.255 42.7157 20.9444 41.4049 20.9444 39.8079V37.2317C20.9444 36.6441 20.628 35.8004 20.2514 35.3484L18.2178 32.9529C17.3441 31.9134 17.3441 30.226 18.2178 29.1865L20.2514 26.791C20.628 26.339 20.9444 25.4953 20.9444 24.9077V22.3164C20.9444 20.7194 22.255 19.4087 23.8517 19.4087H26.4578C27.0453 19.4087 27.904 19.0923 28.3559 18.7006L30.736 16.6667Z" fill="url(#paint0_linear_1136_38897)"/>
</g>
<g filter="url(#filter1_b_1136_38897)">
<path d="M30.8007 20.4276C31.8116 19.5632 33.4672 19.5632 34.4927 20.4276L36.8076 22.4202C37.2472 22.8011 38.0676 23.1088 38.6537 23.1088H41.1443C42.6974 23.1088 43.972 24.3834 43.972 25.9364V28.4271C43.972 28.9985 44.2797 29.8336 44.6606 30.2731L46.6532 32.588C47.5176 33.5989 47.5176 35.2545 46.6532 36.2801L44.6606 38.595C44.2797 39.0345 43.972 39.855 43.972 40.441V42.9317C43.972 44.4847 42.6974 45.7594 41.1443 45.7594H38.6537C38.0823 45.7594 37.2472 46.067 36.8076 46.448L34.4927 48.4405C33.4818 49.3049 31.8262 49.3049 30.8007 48.4405L28.4858 46.448C28.0463 46.067 27.2258 45.7594 26.6398 45.7594H24.1051C22.5521 45.7594 21.2775 44.4847 21.2775 42.9317V40.4264C21.2775 39.855 20.9698 39.0345 20.6035 38.595L18.6256 36.2654C17.7758 35.2545 17.7758 33.6136 18.6256 32.6027L20.6035 30.2731C20.9698 29.8336 21.2775 29.0132 21.2775 28.4418V25.9218C21.2775 24.3688 22.5521 23.0941 24.1051 23.0941H26.6398C27.2111 23.0941 28.0463 22.7864 28.4858 22.4055L30.8007 20.4276Z" fill="#B9DDFF" fill-opacity="0.6"/>
<path d="M31.0138 20.6771L31.0139 20.677C31.9008 19.9187 33.3756 19.9164 34.28 20.6775C34.2804 20.6778 34.2808 20.6782 34.2812 20.6785L36.5927 22.6682C36.5929 22.6683 36.5931 22.6685 36.5933 22.6687C36.8511 22.8919 37.2035 23.0812 37.5608 23.2147C37.9185 23.3484 38.3101 23.4369 38.6537 23.4369H41.1443C42.5161 23.4369 43.6438 24.5646 43.6438 25.9364V28.4271C43.6438 28.7638 43.7326 29.1554 43.8658 29.5139C43.999 29.8722 44.1882 30.229 44.4122 30.4876C44.4123 30.4878 44.4125 30.4879 44.4126 30.4881L46.4037 32.8013C46.4038 32.8014 46.4039 32.8015 46.404 32.8016C47.162 33.6885 47.1643 35.163 46.4033 36.0673C46.403 36.0677 46.4026 36.0682 46.4022 36.0686L44.4126 38.38C44.4124 38.3803 44.4122 38.3806 44.4119 38.3808C44.1888 38.6386 43.9995 38.9909 43.866 39.3482C43.7324 39.7059 43.6438 40.0974 43.6438 40.441V42.9317C43.6438 44.3035 42.5161 45.4312 41.1443 45.4312H38.6537C38.317 45.4312 37.9254 45.52 37.5669 45.6532C37.2087 45.7863 36.8521 45.9754 36.5935 46.1993C36.5932 46.1995 36.593 46.1997 36.5927 46.2L34.2795 48.1911C34.2793 48.1912 34.2792 48.1913 34.279 48.1915C33.3921 48.9494 31.9177 48.9516 31.0135 48.1907C31.013 48.1903 31.0126 48.1899 31.0122 48.1896L28.7007 46.2C28.7006 46.1998 28.7004 46.1997 28.7002 46.1995C28.4425 45.9763 28.09 45.7869 27.7326 45.6534C27.3749 45.5198 26.9833 45.4312 26.6398 45.4312H24.1051C22.7333 45.4312 21.6056 44.3035 21.6056 42.9317V40.4264C21.6056 40.0894 21.5167 39.7015 21.3856 39.3473C21.2543 38.9926 21.0695 38.6416 20.8556 38.3849L20.8556 38.3849L20.8537 38.3826L18.8768 36.0543C18.8767 36.0541 18.8765 36.0539 18.8763 36.0537C18.1298 35.165 18.1298 33.7031 18.8763 32.8144C18.8765 32.8142 18.8767 32.814 18.8768 32.8138L20.8537 30.4855L20.8537 30.4856L20.8556 30.4832C21.0695 30.2265 21.2543 29.8755 21.3856 29.5208C21.5167 29.1666 21.6056 28.7787 21.6056 28.4418V25.9218C21.6056 24.55 22.7333 23.4223 24.1051 23.4223H26.6398C26.9764 23.4223 27.368 23.3335 27.7265 23.2003C28.0846 23.0672 28.4412 22.8781 28.6998 22.6543C28.7001 22.6541 28.7004 22.6538 28.7007 22.6535L31.0138 20.6771Z" stroke="url(#paint1_linear_1136_38897)" stroke-width="0.656344"/>
</g>
<path d="M27.3242 34.4167L30.8551 37.9622L37.9316 30.8711" stroke="white" stroke-width="2" stroke-linecap="round" stroke-linejoin="round"/>
<defs>
<filter id="filter0_b_1136_38897" x="3.29072" y="1.72822" width="58.6842" height="58.6822" filterUnits="userSpaceOnUse" color-interpolation-filters="sRGB">
<feFlood flood-opacity="0" result="BackgroundImageFix"/>
<feGaussianBlur in="BackgroundImageFix" stdDeviation="7.13589"/>
<feComposite in2="SourceAlpha" operator="in" result="effect1_backgroundBlur_1136_38897"/>
<feBlend mode="normal" in="SourceGraphic" in2="effect1_backgroundBlur_1136_38897" result="shape"/>
</filter>
<filter id="filter1_b_1136_38897" x="3.7165" y="5.50751" width="57.8561" height="57.8522" filterUnits="userSpaceOnUse" color-interpolation-filters="sRGB">
<feFlood flood-opacity="0" result="BackgroundImageFix"/>
<feGaussianBlur in="BackgroundImageFix" stdDeviation="7.13589"/>
<feComposite in2="SourceAlpha" operator="in" result="effect1_backgroundBlur_1136_38897"/>
<feBlend mode="normal" in="SourceGraphic" in2="effect1_backgroundBlur_1136_38897" result="shape"/>
</filter>
<linearGradient id="paint0_linear_1136_38897" x1="26.2566" y1="22.593" x2="49.3822" y2="30.5457" gradientUnits="userSpaceOnUse">
<stop stop-color="#7FC0FB"/>
<stop offset="1" stop-color="#4088F4"/>
</linearGradient>
<linearGradient id="paint1_linear_1136_38897" x1="33.8663" y1="15.3829" x2="33.2563" y2="43.2134" gradientUnits="userSpaceOnUse">
<stop stop-color="white"/>
<stop offset="0.996024" stop-color="white" stop-opacity="0"/>
</linearGradient>
</defs>
</svg>
