<svg width="66" height="63" viewBox="0 0 66 63" fill="none" xmlns="http://www.w3.org/2000/svg">
<path opacity="0.2" d="M0 8.40931C0 3.76497 3.76498 0 8.40931 0H56.7628C61.4072 0 65.1721 3.76498 65.1721 8.40931V54.5904C65.1721 59.2348 61.4072 62.9997 56.7628 62.9997H8.40931C3.76498 62.9997 0 59.2348 0 54.5904V8.40931Z" fill="#B68AFF"/>
<path fill-rule="evenodd" clip-rule="evenodd" d="M19.0015 34.8095L19 34.8079V21.8542C19 18.6207 21.5886 16 24.7826 16H35.0341C38.3826 16 41.1129 18.7511 41.1129 22.1411V23.2682L41.1144 23.2698V36.2235C41.1144 39.457 38.5258 42.0777 35.3318 42.0777H25.0803C21.7318 42.0777 19.0015 39.3266 19.0015 35.9366V34.8095Z" fill="url(#paint0_linear_1136_36920)"/>
<g opacity="0.5" filter="url(#filter0_f_1136_36920)">
<rect x="23.1836" y="34.748" width="13.5376" height="11.5763" rx="2.18444" transform="rotate(-90 23.1836 34.748)" fill="#8237FF" fill-opacity="0.5"/>
</g>
<g filter="url(#filter1_b_1136_36920)">
<path d="M29.6443 21.9219L39.2073 21.9219L45.9488 29.1906V42.1443C45.9488 45.3778 43.3602 47.9985 40.1663 47.9985H29.9147C26.5662 47.9985 23.8359 45.2474 23.8359 41.8575L23.8359 27.8022C23.8359 24.5687 26.4375 21.9219 29.6443 21.9219Z" fill="#BA90FF" fill-opacity="0.35"/>
<path d="M39.3675 21.7733C39.3262 21.7288 39.2681 21.7034 39.2073 21.7034L29.6443 21.7034C26.314 21.7034 23.6175 24.4509 23.6175 27.8022L23.6175 41.8575C23.6175 45.3662 26.4437 48.217 29.9147 48.217H40.1663C43.4834 48.217 46.1673 45.4959 46.1673 42.1443V29.1906C46.1673 29.1355 46.1465 29.0825 46.109 29.0421L39.3675 21.7733Z" stroke="url(#paint1_linear_1136_36920)" stroke-width="0.436888" stroke-linecap="round" stroke-linejoin="round"/>
</g>
<mask id="path-7-inside-1_1136_36920" fill="white">
<path fill-rule="evenodd" clip-rule="evenodd" d="M34.7955 32.1523H30.4425C29.9144 32.1523 29.4766 32.5956 29.4766 33.1302C29.4766 33.6648 29.9144 34.0951 30.4425 34.0951H34.7955C35.3235 34.0951 35.7614 33.6648 35.7614 33.1302C35.7614 32.5956 35.3235 32.1523 34.7955 32.1523ZM30.4425 40.6142H37.4485C37.9766 40.6142 38.4145 40.1709 38.4145 39.6364C38.4145 39.1018 37.9766 38.6715 37.4485 38.6715H30.4425C29.9144 38.6715 29.4766 39.1018 29.4766 39.6364C29.4766 40.1709 29.9144 40.6142 30.4425 40.6142Z"/>
</mask>
<path fill-rule="evenodd" clip-rule="evenodd" d="M34.7955 32.1523H30.4425C29.9144 32.1523 29.4766 32.5956 29.4766 33.1302C29.4766 33.6648 29.9144 34.0951 30.4425 34.0951H34.7955C35.3235 34.0951 35.7614 33.6648 35.7614 33.1302C35.7614 32.5956 35.3235 32.1523 34.7955 32.1523ZM30.4425 40.6142H37.4485C37.9766 40.6142 38.4145 40.1709 38.4145 39.6364C38.4145 39.1018 37.9766 38.6715 37.4485 38.6715H30.4425C29.9144 38.6715 29.4766 39.1018 29.4766 39.6364C29.4766 40.1709 29.9144 40.6142 30.4425 40.6142Z" fill="url(#paint2_linear_1136_36920)"/>
<path d="M30.4425 32.3271H34.7955V31.9776H30.4425V32.3271ZM29.6513 33.1302C29.6513 32.6901 30.013 32.3271 30.4425 32.3271V31.9776C29.8159 31.9776 29.3018 32.5012 29.3018 33.1302H29.6513ZM30.4425 33.9203C30.0099 33.9203 29.6513 33.5673 29.6513 33.1302H29.3018C29.3018 33.7623 29.819 34.2698 30.4425 34.2698V33.9203ZM34.7955 33.9203H30.4425V34.2698H34.7955V33.9203ZM35.5867 33.1302C35.5867 33.5673 35.228 33.9203 34.7955 33.9203V34.2698C35.419 34.2698 35.9362 33.7623 35.9362 33.1302H35.5867ZM34.7955 32.3271C35.225 32.3271 35.5867 32.6901 35.5867 33.1302H35.9362C35.9362 32.5012 35.4221 31.9776 34.7955 31.9776V32.3271ZM37.4485 40.4395H30.4425V40.789H37.4485V40.4395ZM38.2397 39.6364C38.2397 40.0765 37.878 40.4395 37.4485 40.4395V40.789C38.0751 40.789 38.5892 40.2654 38.5892 39.6364H38.2397ZM37.4485 38.8463C37.8811 38.8463 38.2397 39.1993 38.2397 39.6364H38.5892C38.5892 39.0043 38.0721 38.4968 37.4485 38.4968V38.8463ZM30.4425 38.8463H37.4485V38.4968H30.4425V38.8463ZM29.6513 39.6364C29.6513 39.1993 30.0099 38.8463 30.4425 38.8463V38.4968C29.819 38.4968 29.3018 39.0043 29.3018 39.6364H29.6513ZM30.4425 40.4395C30.013 40.4395 29.6513 40.0765 29.6513 39.6364H29.3018C29.3018 40.2654 29.8159 40.789 30.4425 40.789V40.4395Z" fill="url(#paint3_linear_1136_36920)" mask="url(#path-7-inside-1_1136_36920)"/>
<g filter="url(#filter2_bd_1136_36920)">
<mask id="path-9-inside-2_1136_36920" fill="white">
<path d="M40.3984 30.2316C41.2961 30.2407 42.544 30.2446 43.6027 30.2407C44.1449 30.2394 44.4205 29.5836 44.0444 29.1885C42.6844 27.7569 40.2516 25.1949 38.8594 23.7294C38.4743 23.3239 37.8008 23.6029 37.8008 24.1648V27.6017C37.8008 29.0438 38.974 30.2316 40.3984 30.2316Z"/>
</mask>
<path d="M40.3984 30.2316C41.2961 30.2407 42.544 30.2446 43.6027 30.2407C44.1449 30.2394 44.4205 29.5836 44.0444 29.1885C42.6844 27.7569 40.2516 25.1949 38.8594 23.7294C38.4743 23.3239 37.8008 23.6029 37.8008 24.1648V27.6017C37.8008 29.0438 38.974 30.2316 40.3984 30.2316Z" fill="url(#paint4_linear_1136_36920)"/>
<path d="M43.6027 30.2407L43.6023 30.0659L43.602 30.0659L43.6027 30.2407ZM44.0444 29.1885L43.9177 29.3089L43.9179 29.309L44.0444 29.1885ZM38.8594 23.7294L38.7327 23.8497L38.7327 23.8497L38.8594 23.7294ZM40.3967 30.4063C41.2952 30.4155 42.544 30.4194 43.6033 30.4155L43.602 30.0659C42.5441 30.0699 41.297 30.0659 40.4002 30.0568L40.3967 30.4063ZM43.6031 30.4155C44.3024 30.4138 44.6503 29.5716 44.171 29.068L43.9179 29.309C44.1907 29.5956 43.9874 30.065 43.6023 30.0659L43.6031 30.4155ZM44.1711 29.0681C42.8099 27.6352 40.3796 25.0759 38.9861 23.609L38.7327 23.8497C40.1236 25.3139 42.559 27.8786 43.9177 29.3089L44.1711 29.0681ZM38.9861 23.609C38.4874 23.0838 37.626 23.4522 37.626 24.1648H37.9755C37.9755 23.7536 38.4613 23.5639 38.7327 23.8497L38.9861 23.609ZM37.626 24.1648V27.6017H37.9755V24.1648H37.626ZM37.626 27.6017C37.626 29.1383 38.8755 30.4063 40.3984 30.4063V30.0568C39.0726 30.0568 37.9755 28.9493 37.9755 27.6017H37.626Z" fill="url(#paint5_linear_1136_36920)" mask="url(#path-9-inside-2_1136_36920)"/>
</g>
<defs>
<filter id="filter0_f_1136_36920" x="14.0089" y="12.0363" width="29.9274" height="31.8864" filterUnits="userSpaceOnUse" color-interpolation-filters="sRGB">
<feFlood flood-opacity="0" result="BackgroundImageFix"/>
<feBlend mode="normal" in="SourceGraphic" in2="BackgroundImageFix" result="shape"/>
<feGaussianBlur stdDeviation="4.58733" result="effect1_foregroundBlur_1136_36920"/>
</filter>
<filter id="filter1_b_1136_36920" x="12.9131" y="10.9991" width="43.9589" height="47.9218" filterUnits="userSpaceOnUse" color-interpolation-filters="sRGB">
<feFlood flood-opacity="0" result="BackgroundImageFix"/>
<feGaussianBlur in="BackgroundImageFix" stdDeviation="5.24266"/>
<feComposite in2="SourceAlpha" operator="in" result="effect1_backgroundBlur_1136_36920"/>
<feBlend mode="normal" in="SourceGraphic" in2="effect1_backgroundBlur_1136_36920" result="shape"/>
</filter>
<filter id="filter2_bd_1136_36920" x="31.2475" y="16.9838" width="19.5246" height="19.8117" filterUnits="userSpaceOnUse" color-interpolation-filters="sRGB">
<feFlood flood-opacity="0" result="BackgroundImageFix"/>
<feGaussianBlur in="BackgroundImageFix" stdDeviation="3.27666"/>
<feComposite in2="SourceAlpha" operator="in" result="effect1_backgroundBlur_1136_36920"/>
<feColorMatrix in="SourceAlpha" type="matrix" values="0 0 0 0 0 0 0 0 0 0 0 0 0 0 0 0 0 0 127 0" result="hardAlpha"/>
<feOffset dx="2.18444" dy="2.18444"/>
<feGaussianBlur stdDeviation="2.18444"/>
<feColorMatrix type="matrix" values="0 0 0 0 0.577356 0 0 0 0 0.359375 0 0 0 0 0.9375 0 0 0 0.25 0"/>
<feBlend mode="normal" in2="effect1_backgroundBlur_1136_36920" result="effect2_dropShadow_1136_36920"/>
<feBlend mode="normal" in="SourceGraphic" in2="effect2_dropShadow_1136_36920" result="shape"/>
</filter>
<linearGradient id="paint0_linear_1136_36920" x1="34.8728" y1="16" x2="34.8728" y2="42.0777" gradientUnits="userSpaceOnUse">
<stop stop-color="#BC94FF"/>
<stop offset="1" stop-color="#9F66FF"/>
</linearGradient>
<linearGradient id="paint1_linear_1136_36920" x1="27.356" y1="24.9598" x2="44.3517" y2="42.8099" gradientUnits="userSpaceOnUse">
<stop stop-color="white" stop-opacity="0.25"/>
<stop offset="1" stop-color="white" stop-opacity="0"/>
</linearGradient>
<linearGradient id="paint2_linear_1136_36920" x1="37.7808" y1="33.6804" x2="27.826" y2="34.0232" gradientUnits="userSpaceOnUse">
<stop stop-color="white"/>
<stop offset="1" stop-color="white" stop-opacity="0.2"/>
</linearGradient>
<linearGradient id="paint3_linear_1136_36920" x1="30.8993" y1="33.1382" x2="36.2277" y2="40.1087" gradientUnits="userSpaceOnUse">
<stop stop-color="white" stop-opacity="0.25"/>
<stop offset="1" stop-color="white" stop-opacity="0"/>
</linearGradient>
<linearGradient id="paint4_linear_1136_36920" x1="43.7629" y1="24.7479" x2="36.6142" y2="24.971" gradientUnits="userSpaceOnUse">
<stop stop-color="white"/>
<stop offset="1" stop-color="white" stop-opacity="0.2"/>
</linearGradient>
<linearGradient id="paint5_linear_1136_36920" x1="38.8223" y1="24.3183" x2="43.1352" y2="29.4304" gradientUnits="userSpaceOnUse">
<stop stop-color="white" stop-opacity="0.25"/>
<stop offset="1" stop-color="white" stop-opacity="0"/>
</linearGradient>
</defs>
</svg>
