<svg width="66" height="63" viewBox="0 0 66 63" fill="none" xmlns="http://www.w3.org/2000/svg">
<path opacity="0.2" d="M0 8.40931C0 3.76497 3.76498 0 8.40931 0H56.7628C61.4072 0 65.1721 3.76498 65.1721 8.40931V54.5904C65.1721 59.2348 61.4072 62.9997 56.7628 62.9997H8.40931C3.76498 62.9997 0 59.2348 0 54.5904V8.40931Z" fill="#FD8B76"/>
<g filter="url(#filter0_b_1136_37460)">
<path d="M33.7 17.7202L22.4325 20.7393C18.3264 21.8395 16.6233 24.7891 17.7234 28.8948L20.7394 40.1505C21.8395 44.2562 24.7892 45.959 28.8953 44.8588L40.1628 41.8397C44.2689 40.7395 45.9612 37.7928 44.8611 33.6871L41.8452 22.4313C40.7451 18.3257 37.8061 16.62 33.7 17.7202Z" fill="url(#paint0_linear_1136_37460)"/>
</g>
<g opacity="0.5" filter="url(#filter1_f_1136_37460)">
<path d="M39.2517 32.4725L37.2056 24.7217C36.4634 21.9103 34.6058 20.6497 32.1634 21.2945L23.8912 23.4783C21.4087 24.1337 20.4474 26.1384 21.1896 28.9498L23.2358 36.7006C23.9899 39.5573 25.8032 40.7801 28.2857 40.1248L36.5579 37.941C39.0004 37.2962 40.0059 35.3292 39.2517 32.4725Z" fill="#FF624D"/>
</g>
<g filter="url(#filter2_b_1136_37460)">
<mask id="path-4-outside-1_1136_37460" maskUnits="userSpaceOnUse" x="24.1719" y="22.0293" width="27" height="27" fill="black">
<rect fill="white" x="24.1719" y="22.0293" width="27" height="27"/>
<path d="M43.4945 23.0293H31.8306C27.5801 23.0293 25.1719 25.4375 25.1719 29.6881V41.3409C25.1719 45.5914 27.5801 47.9996 31.8306 47.9996H43.4945C47.7451 47.9996 50.1422 45.5914 50.1422 41.3409V29.6881C50.1422 25.4375 47.7451 23.0293 43.4945 23.0293Z"/>
</mask>
<path d="M43.4945 23.0293H31.8306C27.5801 23.0293 25.1719 25.4375 25.1719 29.6881V41.3409C25.1719 45.5914 27.5801 47.9996 31.8306 47.9996H43.4945C47.7451 47.9996 50.1422 45.5914 50.1422 41.3409V29.6881C50.1422 25.4375 47.7451 23.0293 43.4945 23.0293Z" fill="#FFAC95" fill-opacity="0.6"/>
<path d="M43.4945 24.0293C44.0468 24.0293 44.4945 23.5816 44.4945 23.0293C44.4945 22.477 44.0468 22.0293 43.4945 22.0293V24.0293ZM43.4945 22.0293C42.9423 22.0293 42.4945 22.477 42.4945 23.0293C42.4945 23.5816 42.9423 24.0293 43.4945 24.0293V22.0293ZM43.4945 22.0293H31.8306V24.0293H43.4945V22.0293ZM31.8306 22.0293C29.5195 22.0293 27.5706 22.6872 26.2002 24.0576C24.8298 25.428 24.1719 27.3769 24.1719 29.6881H26.1719C26.1719 27.7487 26.7181 26.3682 27.6144 25.4718C28.5108 24.5755 29.8913 24.0293 31.8306 24.0293V22.0293ZM24.1719 29.6881V41.3409H26.1719V29.6881H24.1719ZM24.1719 41.3409C24.1719 43.652 24.8298 45.6009 26.2002 46.9713C27.5706 48.3417 29.5195 48.9996 31.8306 48.9996V46.9996C29.8913 46.9996 28.5108 46.4534 27.6144 45.5571C26.7181 44.6607 26.1719 43.2802 26.1719 41.3409H24.1719ZM31.8306 48.9996H43.4945V46.9996H31.8306V48.9996ZM43.4945 48.9996C45.8058 48.9996 47.7524 48.3416 49.1203 46.9704C50.4878 45.5996 51.1422 43.6508 51.1422 41.3409H49.1422C49.1422 43.2815 48.5981 44.662 47.7043 45.5579C46.811 46.4535 45.4338 46.9996 43.4945 46.9996V48.9996ZM51.1422 41.3409V29.6881H49.1422V41.3409H51.1422ZM51.1422 29.6881C51.1422 27.3781 50.4878 25.4293 49.1203 24.0585C47.7524 22.6873 45.8058 22.0293 43.4945 22.0293V24.0293C45.4338 24.0293 46.811 24.5754 47.7043 25.471C48.5981 26.3669 49.1422 27.7475 49.1422 29.6881H51.1422Z" fill="url(#paint1_linear_1136_37460)" mask="url(#path-4-outside-1_1136_37460)"/>
</g>
<g filter="url(#filter3_bd_1136_37460)">
<mask id="path-6-inside-2_1136_37460" fill="white">
<path fill-rule="evenodd" clip-rule="evenodd" d="M37.7055 28.1328C37.1395 28.1328 36.6734 28.5989 36.6734 29.176V41.8498C36.6734 42.4158 37.1395 42.882 37.7055 42.882C38.2826 42.882 38.7487 42.4158 38.7487 41.8498V29.176C38.7487 28.5989 38.2826 28.1328 37.7055 28.1328ZM31.8798 32.2282C31.3138 32.2282 30.8477 32.6944 30.8477 33.2715V41.8501C30.8477 42.4161 31.3138 42.8823 31.8798 42.8823C32.4569 42.8823 32.923 42.4161 32.923 41.8501V33.2715C32.923 32.6944 32.4569 32.2282 31.8798 32.2282ZM42.4136 37.7995C42.4136 37.2224 42.8797 36.7563 43.4568 36.7563C44.0228 36.7563 44.4889 37.2224 44.4889 37.7995V41.8502C44.4889 42.4162 44.0228 42.8823 43.4457 42.8823C42.8797 42.8823 42.4136 42.4162 42.4136 41.8502V37.7995Z"/>
</mask>
<path fill-rule="evenodd" clip-rule="evenodd" d="M37.7055 28.1328C37.1395 28.1328 36.6734 28.5989 36.6734 29.176V41.8498C36.6734 42.4158 37.1395 42.882 37.7055 42.882C38.2826 42.882 38.7487 42.4158 38.7487 41.8498V29.176C38.7487 28.5989 38.2826 28.1328 37.7055 28.1328ZM31.8798 32.2282C31.3138 32.2282 30.8477 32.6944 30.8477 33.2715V41.8501C30.8477 42.4161 31.3138 42.8823 31.8798 42.8823C32.4569 42.8823 32.923 42.4161 32.923 41.8501V33.2715C32.923 32.6944 32.4569 32.2282 31.8798 32.2282ZM42.4136 37.7995C42.4136 37.2224 42.8797 36.7563 43.4568 36.7563C44.0228 36.7563 44.4889 37.2224 44.4889 37.7995V41.8502C44.4889 42.4162 44.0228 42.8823 43.4457 42.8823C42.8797 42.8823 42.4136 42.4162 42.4136 41.8502V37.7995Z" fill="url(#paint2_linear_1136_37460)"/>
<path d="M37.0734 29.176C37.0734 28.8171 37.3632 28.5328 37.7055 28.5328V27.7328C36.9158 27.7328 36.2734 28.3808 36.2734 29.176H37.0734ZM37.0734 41.8498V29.176H36.2734V41.8498H37.0734ZM37.7055 42.482C37.3604 42.482 37.0734 42.1949 37.0734 41.8498H36.2734C36.2734 42.6368 36.9186 43.2819 37.7055 43.2819V42.482ZM38.3487 41.8498C38.3487 42.1921 38.0644 42.482 37.7055 42.482V43.2819C38.5007 43.2819 39.1487 42.6395 39.1487 41.8498H38.3487ZM38.3487 29.176V41.8498H39.1487V29.176H38.3487ZM37.7055 28.5328C38.0617 28.5328 38.3487 28.8198 38.3487 29.176H39.1487C39.1487 28.378 38.5035 27.7328 37.7055 27.7328V28.5328ZM31.2477 33.2715C31.2477 32.9125 31.5375 32.6282 31.8798 32.6282V31.8282C31.0901 31.8282 30.4477 32.4762 30.4477 33.2715H31.2477ZM31.2477 41.8501V33.2715H30.4477V41.8501H31.2477ZM31.8798 42.4823C31.5347 42.4823 31.2477 42.1952 31.2477 41.8501H30.4477C30.4477 42.6371 31.0929 43.2823 31.8798 43.2823V42.4823ZM32.523 41.8501C32.523 42.1924 32.2387 42.4823 31.8798 42.4823V43.2823C32.675 43.2823 33.323 42.6398 33.323 41.8501H32.523ZM32.523 33.2715V41.8501H33.323V33.2715H32.523ZM31.8798 32.6282C32.2359 32.6282 32.523 32.9153 32.523 33.2715H33.323C33.323 32.4734 32.6778 31.8282 31.8798 31.8282V32.6282ZM43.4568 36.3563C42.6588 36.3563 42.0136 37.0015 42.0136 37.7995H42.8136C42.8136 37.4433 43.1006 37.1563 43.4568 37.1563V36.3563ZM44.8889 37.7995C44.8889 37.0042 44.2465 36.3563 43.4568 36.3563V37.1563C43.7991 37.1563 44.0889 37.4405 44.0889 37.7995H44.8889ZM44.8889 41.8502V37.7995H44.0889V41.8502H44.8889ZM43.4457 43.2823C44.2409 43.2823 44.8889 42.6399 44.8889 41.8502H44.0889C44.0889 42.1925 43.8046 42.4823 43.4457 42.4823V43.2823ZM42.0136 41.8502C42.0136 42.6371 42.6588 43.2823 43.4457 43.2823V42.4823C43.1006 42.4823 42.8136 42.1953 42.8136 41.8502H42.0136ZM42.0136 37.7995V41.8502H42.8136V37.7995H42.0136Z" fill="url(#paint3_linear_1136_37460)" mask="url(#path-6-inside-2_1136_37460)"/>
</g>
<defs>
<filter id="filter0_b_1136_37460" x="4.39844" y="4.39258" width="53.7891" height="53.793" filterUnits="userSpaceOnUse" color-interpolation-filters="sRGB">
<feFlood flood-opacity="0" result="BackgroundImageFix"/>
<feGaussianBlur in="BackgroundImageFix" stdDeviation="6.5"/>
<feComposite in2="SourceAlpha" operator="in" result="effect1_backgroundBlur_1136_37460"/>
<feBlend mode="normal" in="SourceGraphic" in2="effect1_backgroundBlur_1136_37460" result="shape"/>
</filter>
<filter id="filter1_f_1136_37460" x="7.94531" y="8.12891" width="44.5508" height="45.168" filterUnits="userSpaceOnUse" color-interpolation-filters="sRGB">
<feFlood flood-opacity="0" result="BackgroundImageFix"/>
<feBlend mode="normal" in="SourceGraphic" in2="BackgroundImageFix" result="shape"/>
<feGaussianBlur stdDeviation="6.5" result="effect1_foregroundBlur_1136_37460"/>
</filter>
<filter id="filter2_b_1136_37460" x="9.17188" y="7.0293" width="56.9688" height="56.9707" filterUnits="userSpaceOnUse" color-interpolation-filters="sRGB">
<feFlood flood-opacity="0" result="BackgroundImageFix"/>
<feGaussianBlur in="BackgroundImageFix" stdDeviation="7.5"/>
<feComposite in2="SourceAlpha" operator="in" result="effect1_backgroundBlur_1136_37460"/>
<feBlend mode="normal" in="SourceGraphic" in2="effect1_backgroundBlur_1136_37460" result="shape"/>
</filter>
<filter id="filter3_bd_1136_37460" x="15.8477" y="13.1328" width="43.6406" height="44.75" filterUnits="userSpaceOnUse" color-interpolation-filters="sRGB">
<feFlood flood-opacity="0" result="BackgroundImageFix"/>
<feGaussianBlur in="BackgroundImageFix" stdDeviation="7.5"/>
<feComposite in2="SourceAlpha" operator="in" result="effect1_backgroundBlur_1136_37460"/>
<feColorMatrix in="SourceAlpha" type="matrix" values="0 0 0 0 0 0 0 0 0 0 0 0 0 0 0 0 0 0 127 0" result="hardAlpha"/>
<feOffset dx="5" dy="5"/>
<feGaussianBlur stdDeviation="5"/>
<feColorMatrix type="matrix" values="0 0 0 0 1 0 0 0 0 0.447059 0 0 0 0 0.368627 0 0 0 0.5 0"/>
<feBlend mode="normal" in2="effect1_backgroundBlur_1136_37460" result="effect2_dropShadow_1136_37460"/>
<feBlend mode="normal" in="SourceGraphic" in2="effect2_dropShadow_1136_37460" result="shape"/>
</filter>
<linearGradient id="paint0_linear_1136_37460" x1="33.5009" y1="32.4302" x2="15.0677" y2="48.4157" gradientUnits="userSpaceOnUse">
<stop stop-color="#FFA78F"/>
<stop offset="1" stop-color="#F23E2C"/>
</linearGradient>
<linearGradient id="paint1_linear_1136_37460" x1="29.1467" y1="25.9384" x2="45.0752" y2="45.6661" gradientUnits="userSpaceOnUse">
<stop stop-color="white" stop-opacity="0.25"/>
<stop offset="1" stop-color="white" stop-opacity="0"/>
</linearGradient>
<linearGradient id="paint2_linear_1136_37460" x1="27.3167" y1="39.0801" x2="33.7054" y2="52.2066" gradientUnits="userSpaceOnUse">
<stop stop-color="white"/>
<stop offset="1" stop-color="white" stop-opacity="0.2"/>
</linearGradient>
<linearGradient id="paint3_linear_1136_37460" x1="33.0191" y1="29.8511" x2="42.5557" y2="40.7749" gradientUnits="userSpaceOnUse">
<stop stop-color="white" stop-opacity="0.25"/>
<stop offset="1" stop-color="white" stop-opacity="0"/>
</linearGradient>
</defs>
</svg>
