<svg width="32" height="32" viewBox="0 0 32 32" fill="none" xmlns="http://www.w3.org/2000/svg">
<circle cx="16" cy="16" r="15.5" stroke="#E5E7EB"/>
<path d="M15.9999 18.8866C14.4066 18.8866 13.1133 17.5933 13.1133 15.9999C13.1133 14.4066 14.4066 13.1133 15.9999 13.1133C17.5933 13.1133 18.8866 14.4066 18.8866 15.9999C18.8866 17.5933 17.5933 18.8866 15.9999 18.8866ZM15.9999 14.1133C14.9599 14.1133 14.1133 14.9599 14.1133 15.9999C14.1133 17.0399 14.9599 17.8866 15.9999 17.8866C17.0399 17.8866 17.8866 17.0399 17.8866 15.9999C17.8866 14.9599 17.0399 14.1133 15.9999 14.1133Z" fill="#374151"/>
<path d="M15.9988 22.013C13.4921 22.013 11.1254 20.5463 9.49875 17.9997C8.79208 16.8997 8.79208 15.1063 9.49875 13.9997C11.1321 11.453 13.4988 9.98633 15.9988 9.98633C18.4988 9.98633 20.8654 11.453 22.4921 13.9997C23.1988 15.0997 23.1988 16.893 22.4921 17.9997C20.8654 20.5463 18.4988 22.013 15.9988 22.013ZM15.9988 10.9863C13.8454 10.9863 11.7854 12.2797 10.3454 14.5397C9.84542 15.3197 9.84542 16.6797 10.3454 17.4597C11.7854 19.7197 13.8454 21.013 15.9988 21.013C18.1521 21.013 20.2121 19.7197 21.6521 17.4597C22.1521 16.6797 22.1521 15.3197 21.6521 14.5397C20.2121 12.2797 18.1521 10.9863 15.9988 10.9863Z" fill="#374151"/>
</svg>
