<svg width="32" height="32" viewBox="0 0 32 32" fill="none" xmlns="http://www.w3.org/2000/svg">
<circle cx="16" cy="16" r="15.5" stroke="#E5E7EB"/>
<path d="M21.9985 12.4863C21.9851 12.4863 21.9651 12.4863 21.9451 12.4863C18.4185 12.133 14.8985 11.9997 11.4118 12.353L10.0518 12.4863C9.77181 12.513 9.52515 12.313 9.49848 12.033C9.47181 11.753 9.67181 11.513 9.94515 11.4863L11.3051 11.353C14.8518 10.993 18.4451 11.133 22.0451 11.4863C22.3185 11.513 22.5185 11.7597 22.4918 12.033C22.4718 12.293 22.2518 12.4863 21.9985 12.4863Z" fill="#E61B00"/>
<path d="M13.6646 11.814C13.6379 11.814 13.6112 11.814 13.5779 11.8073C13.3112 11.7607 13.1246 11.5007 13.1712 11.234L13.3179 10.3607C13.4246 9.72065 13.5712 8.83398 15.1246 8.83398H16.8712C18.4312 8.83398 18.5779 9.75398 18.6779 10.3673L18.8246 11.234C18.8712 11.5073 18.6846 11.7673 18.4179 11.8073C18.1446 11.854 17.8846 11.6673 17.8446 11.4007L17.6979 10.534C17.6046 9.95398 17.5846 9.84065 16.8779 9.84065H15.1312C14.4246 9.84065 14.4112 9.93398 14.3112 10.5273L14.1579 11.394C14.1179 11.6407 13.9046 11.814 13.6646 11.814Z" fill="#E61B00"/>
<path d="M18.1416 23.1657H13.8616C11.5349 23.1657 11.4416 21.8791 11.3682 20.8391L10.9349 14.1257C10.9149 13.8524 11.1282 13.6124 11.4016 13.5924C11.6816 13.5791 11.9149 13.7857 11.9349 14.0591L12.3682 20.7724C12.4416 21.7857 12.4682 22.1657 13.8616 22.1657H18.1416C19.5416 22.1657 19.5682 21.7857 19.6349 20.7724L20.0682 14.0591C20.0882 13.7857 20.3282 13.5791 20.6016 13.5924C20.8749 13.6124 21.0882 13.8457 21.0682 14.1257L20.6349 20.8391C20.5616 21.8791 20.4682 23.1657 18.1416 23.1657Z" fill="#E61B00"/>
<path d="M17.1067 19.5H14.8867C14.6134 19.5 14.3867 19.2733 14.3867 19C14.3867 18.7267 14.6134 18.5 14.8867 18.5H17.1067C17.3801 18.5 17.6067 18.7267 17.6067 19C17.6067 19.2733 17.3801 19.5 17.1067 19.5Z" fill="#E61B00"/>
<path d="M17.6654 16.834H14.332C14.0587 16.834 13.832 16.6073 13.832 16.334C13.832 16.0607 14.0587 15.834 14.332 15.834H17.6654C17.9387 15.834 18.1654 16.0607 18.1654 16.334C18.1654 16.6073 17.9387 16.834 17.6654 16.834Z" fill="#E61B00"/>
</svg>
