<svg width="32" height="32" viewBox="0 0 32 32" fill="none" xmlns="http://www.w3.org/2000/svg">
<circle cx="16" cy="16" r="15.5" stroke="#E5E7EB"/>
<path d="M11.6933 21.0137C11.2867 21.0137 10.9067 20.8737 10.6333 20.6137C10.2867 20.287 10.12 19.7937 10.18 19.2604L10.4267 17.1004C10.4733 16.6937 10.72 16.1537 11.0067 15.8604L16.48 10.067C17.8467 8.62036 19.2733 8.58036 20.72 9.94703C22.1667 11.3137 22.2067 12.7404 20.84 14.187L15.3667 19.9804C15.0867 20.2804 14.5667 20.5604 14.16 20.627L12.0133 20.9937C11.9 21.0004 11.8 21.0137 11.6933 21.0137ZM18.62 9.94036C18.1067 9.94036 17.66 10.2604 17.2067 10.7404L11.7333 16.5404C11.6 16.6804 11.4467 17.0137 11.42 17.207L11.1733 19.367C11.1467 19.587 11.2 19.767 11.32 19.8804C11.44 19.9937 11.62 20.0337 11.84 20.0004L13.9867 19.6337C14.18 19.6004 14.5 19.427 14.6333 19.287L20.1067 13.4937C20.9333 12.6137 21.2333 11.8004 20.0267 10.667C19.4933 10.1537 19.0333 9.94036 18.62 9.94036Z" fill="#374151"/>
<path d="M19.559 15.2992C19.5457 15.2992 19.5257 15.2992 19.5123 15.2992C17.4323 15.0926 15.759 13.5126 15.439 11.4459C15.399 11.1726 15.5857 10.9192 15.859 10.8726C16.1323 10.8326 16.3857 11.0192 16.4323 11.2926C16.6857 12.9059 17.9923 14.1459 19.619 14.3059C19.8923 14.3326 20.0923 14.5792 20.0657 14.8526C20.0323 15.1059 19.8123 15.2992 19.559 15.2992Z" fill="#374151"/>
<path d="M22 23.166H10C9.72667 23.166 9.5 22.9393 9.5 22.666C9.5 22.3927 9.72667 22.166 10 22.166H22C22.2733 22.166 22.5 22.3927 22.5 22.666C22.5 22.9393 22.2733 23.166 22 23.166Z" fill="#374151"/>
</svg>
