<svg width="38" height="38" viewBox="0 0 38 38" fill="none" xmlns="http://www.w3.org/2000/svg">
<g filter="url(#filter0_d_1108_40690)">
<circle cx="19" cy="15" r="10" fill="#00BD13"/>
<circle cx="19" cy="15" r="10.5" stroke="white"/>
</g>
<path d="M21.6208 20.375H16.3808C14.9808 20.375 14.0908 19.54 14.0108 18.145L13.7508 14.02C13.7108 13.395 13.9258 12.795 14.3558 12.34C14.7808 11.885 15.3808 11.625 16.0008 11.625C16.1608 11.625 16.3158 11.53 16.3908 11.38L16.7508 10.665C17.0458 10.08 17.7858 9.625 18.4308 9.625H19.5758C20.2208 9.625 20.9558 10.08 21.2508 10.66L21.6108 11.39C21.6858 11.53 21.8358 11.625 22.0008 11.625C22.6208 11.625 23.2208 11.885 23.6458 12.34C24.0758 12.8 24.2908 13.395 24.2508 14.02L23.9908 18.15C23.9008 19.565 23.0358 20.375 21.6208 20.375ZM18.4308 10.375C18.0608 10.375 17.5908 10.665 17.4208 11L17.0608 11.72C16.8508 12.125 16.4458 12.375 16.0008 12.375C15.5808 12.375 15.1908 12.545 14.9008 12.85C14.6158 13.155 14.4708 13.555 14.5008 13.97L14.7608 18.1C14.8208 19.11 15.3658 19.625 16.3808 19.625H21.6208C22.6308 19.625 23.1758 19.11 23.2408 18.1L23.5008 13.97C23.5258 13.555 23.3858 13.155 23.1008 12.85C22.8108 12.545 22.4208 12.375 22.0008 12.375C21.5558 12.375 21.1508 12.125 20.9408 11.73L20.5758 11C20.4108 10.67 19.9408 10.38 19.5708 10.38H18.4308V10.375Z" fill="white"/>
<path d="M19.75 13.375H18.25C18.045 13.375 17.875 13.205 17.875 13C17.875 12.795 18.045 12.625 18.25 12.625H19.75C19.955 12.625 20.125 12.795 20.125 13C20.125 13.205 19.955 13.375 19.75 13.375Z" fill="white"/>
<path d="M19 18.375C17.895 18.375 17 17.48 17 16.375C17 15.27 17.895 14.375 19 14.375C20.105 14.375 21 15.27 21 16.375C21 17.48 20.105 18.375 19 18.375ZM19 15.125C18.31 15.125 17.75 15.685 17.75 16.375C17.75 17.065 18.31 17.625 19 17.625C19.69 17.625 20.25 17.065 20.25 16.375C20.25 15.685 19.69 15.125 19 15.125Z" fill="white"/>
<defs>
<filter id="filter0_d_1108_40690" x="0" y="0" width="38" height="38" filterUnits="userSpaceOnUse" color-interpolation-filters="sRGB">
<feFlood flood-opacity="0" result="BackgroundImageFix"/>
<feColorMatrix in="SourceAlpha" type="matrix" values="0 0 0 0 0 0 0 0 0 0 0 0 0 0 0 0 0 0 127 0" result="hardAlpha"/>
<feOffset dy="4"/>
<feGaussianBlur stdDeviation="4"/>
<feComposite in2="hardAlpha" operator="out"/>
<feColorMatrix type="matrix" values="0 0 0 0 0 0 0 0 0 0.741176 0 0 0 0 0.0745098 0 0 0 0.25 0"/>
<feBlend mode="normal" in2="BackgroundImageFix" result="effect1_dropShadow_1108_40690"/>
<feBlend mode="normal" in="SourceGraphic" in2="effect1_dropShadow_1108_40690" result="shape"/>
</filter>
</defs>
</svg>
