<svg width="66" height="63" viewBox="0 0 66 63" fill="none" xmlns="http://www.w3.org/2000/svg">
<path opacity="0.2" d="M0 8.40931C0 3.76497 3.76498 0 8.40931 0H56.7628C61.4072 0 65.1721 3.76498 65.1721 8.40931V54.5904C65.1721 59.2348 61.4072 62.9997 56.7628 62.9997H8.40931C3.76498 62.9997 0 59.2348 0 54.5904V8.40931Z" fill="#FD5C90"/>
<g filter="url(#filter0_b_1136_39087)">
<path d="M38.2678 30.8443C38.037 30.4843 37.7089 30.1243 37.2837 29.8962C36.9435 29.7282 36.7248 29.4522 36.5304 29.1282C35.9107 28.0962 36.2752 26.7402 37.308 26.1282C38.5229 25.4442 38.9117 23.9201 38.2071 22.7321L37.393 21.3161C36.7005 20.1281 35.1817 19.7081 33.9789 20.4041C32.9097 20.9801 31.5368 20.5961 30.9172 19.5761C30.7228 19.2401 30.6134 18.8801 30.6377 18.52C30.6742 18.052 30.5284 17.608 30.3097 17.248C29.8601 16.504 29.0461 16 28.147 16H26.4339C25.547 16.024 24.7329 16.504 24.2834 17.248C24.0525 17.608 23.9189 18.052 23.9432 18.52C23.9675 18.8801 23.8581 19.2401 23.6637 19.5761C23.0441 20.5961 21.6712 20.9801 20.6141 20.4041C19.3992 19.7081 17.8926 20.1281 17.1879 21.3161L16.3739 22.7321C15.6813 23.9201 16.0701 25.4442 17.2729 26.1282C18.3057 26.7402 18.6702 28.0962 18.0627 29.1282C17.8561 29.4522 17.6374 29.7282 17.2972 29.8962C16.8841 30.1243 16.5197 30.4843 16.3253 30.8443C15.8757 31.5883 15.9 32.5243 16.3496 33.3043L17.1879 34.7443C17.6374 35.5124 18.4758 35.9924 19.3506 35.9924C19.7636 35.9924 20.2496 35.8724 20.6384 35.6324C20.9422 35.4283 21.3067 35.3563 21.7076 35.3563C22.9104 35.3563 23.9189 36.3524 23.9432 37.5404C23.9432 38.9204 25.061 40.0004 26.4703 40.0004H28.1227C29.5199 40.0004 30.6377 38.9204 30.6377 37.5404C30.6742 36.3524 31.6826 35.3563 32.8854 35.3563C33.2742 35.3563 33.6387 35.4283 33.9546 35.6324C34.3434 35.8724 34.8173 35.9924 35.2425 35.9924C36.1051 35.9924 36.9435 35.5124 37.393 34.7443L38.2435 33.3043C38.6809 32.5003 38.7173 31.5883 38.2678 30.8443Z" fill="url(#paint0_linear_1136_39087)"/>
</g>
<g opacity="0.5" filter="url(#filter1_f_1136_39087)">
<path d="M33.0287 29.5311C32.9097 29.3458 32.7405 29.1605 32.5213 29.0431C32.3459 28.9566 32.2331 28.8146 32.1329 28.6478C31.8133 28.1166 32.0013 27.4187 32.5338 27.1037C33.1603 26.7516 33.3607 25.9672 32.9974 25.3557L32.5776 24.6269C32.2206 24.0154 31.4375 23.7992 30.8173 24.1574C30.266 24.4539 29.558 24.2563 29.2385 23.7312C29.1383 23.5583 29.0819 23.373 29.0945 23.1877C29.1132 22.9468 29.0381 22.7183 28.9253 22.533C28.6935 22.15 28.2738 21.8906 27.8102 21.8906H26.9268C26.4695 21.903 26.0498 22.15 25.818 22.533C25.699 22.7183 25.63 22.9468 25.6426 23.1877C25.6551 23.373 25.5987 23.5583 25.4985 23.7312C25.179 24.2563 24.4711 24.4539 23.926 24.1574C23.2996 23.7992 22.5227 24.0154 22.1594 24.6269L21.7396 25.3557C21.3826 25.9672 21.583 26.7516 22.2032 27.1037C22.7357 27.4187 22.9237 28.1166 22.6104 28.6478C22.5039 28.8146 22.3912 28.9566 22.2158 29.0431C22.0028 29.1605 21.8148 29.3458 21.7146 29.5311C21.4828 29.914 21.4953 30.3958 21.7271 30.7973L22.1594 31.5384C22.3912 31.9337 22.8234 32.1808 23.2745 32.1808C23.4875 32.1808 23.7381 32.119 23.9386 31.9955C24.0952 31.8905 24.2831 31.8534 24.4899 31.8534C25.1101 31.8534 25.63 32.3661 25.6426 32.9776C25.6426 33.6879 26.2189 34.2438 26.9456 34.2438H27.7976C28.5181 34.2438 29.0945 33.6879 29.0945 32.9776C29.1132 32.3661 29.6332 31.8534 30.2534 31.8534C30.4539 31.8534 30.6418 31.8905 30.8047 31.9955C31.0052 32.119 31.2495 32.1808 31.4688 32.1808C31.9136 32.1808 32.3459 31.9337 32.5776 31.5384L33.0162 30.7973C33.2417 30.3834 33.2605 29.914 33.0287 29.5311Z" fill="#E31352"/>
</g>
<g filter="url(#filter2_b_1136_39087)">
<mask id="path-4-outside-1_1136_39087" maskUnits="userSpaceOnUse" x="21.7031" y="18.1738" width="30" height="31" fill="black">
<rect fill="white" x="21.7031" y="18.1738" width="30" height="31"/>
<path d="M49.697 37.0015C49.4172 36.5691 49.0195 36.1368 48.504 35.863C48.0916 35.6612 47.8265 35.3297 47.5909 34.9406C46.8397 33.7011 47.2816 32.0726 48.5335 31.3376C50.0063 30.5161 50.4776 28.6858 49.6234 27.259L48.6366 25.5584C47.7971 24.1316 45.956 23.6271 44.4979 24.463C43.2018 25.1548 41.5375 24.6936 40.7863 23.4686C40.5507 23.0651 40.4181 22.6327 40.4476 22.2004C40.4917 21.6383 40.315 21.105 40.0499 20.6727C39.5049 19.7791 38.5181 19.1738 37.4282 19.1738H35.3515C34.2763 19.2027 33.2895 19.7791 32.7446 20.6727C32.4647 21.105 32.3027 21.6383 32.3322 22.2004C32.3616 22.6327 32.2291 23.0651 31.9934 23.4686C31.2423 24.6936 29.5779 25.1548 28.2966 24.463C26.8237 23.6271 24.9974 24.1316 24.1431 25.5584L23.1563 27.259C22.3168 28.6858 22.7881 30.5161 24.2462 31.3376C25.4982 32.0726 25.94 33.7011 25.2036 34.9406C24.9532 35.3297 24.6881 35.6612 24.2757 35.863C23.7749 36.1368 23.3331 36.5691 23.0974 37.0015C22.5525 37.895 22.5819 39.0192 23.1269 39.956L24.1431 41.6854C24.6881 42.6078 25.7043 43.1843 26.7648 43.1843C27.2656 43.1843 27.8547 43.0401 28.326 42.7519C28.6942 42.5069 29.1361 42.4204 29.6221 42.4204C31.0802 42.4204 32.3027 43.6166 32.3322 45.0434C32.3322 46.7008 33.6872 47.9979 35.3957 47.9979H37.3988C39.0925 47.9979 40.4476 46.7008 40.4476 45.0434C40.4917 43.6166 41.7142 42.4204 43.1723 42.4204C43.6436 42.4204 44.0855 42.5069 44.4684 42.7519C44.9397 43.0401 45.5141 43.1843 46.0296 43.1843C47.0754 43.1843 48.0916 42.6078 48.6366 41.6854L49.6676 39.956C50.1978 38.9904 50.242 37.895 49.697 37.0015Z"/>
</mask>
<path d="M49.697 37.0015C49.4172 36.5691 49.0195 36.1368 48.504 35.863C48.0916 35.6612 47.8265 35.3297 47.5909 34.9406C46.8397 33.7011 47.2816 32.0726 48.5335 31.3376C50.0063 30.5161 50.4776 28.6858 49.6234 27.259L48.6366 25.5584C47.7971 24.1316 45.956 23.6271 44.4979 24.463C43.2018 25.1548 41.5375 24.6936 40.7863 23.4686C40.5507 23.0651 40.4181 22.6327 40.4476 22.2004C40.4917 21.6383 40.315 21.105 40.0499 20.6727C39.5049 19.7791 38.5181 19.1738 37.4282 19.1738H35.3515C34.2763 19.2027 33.2895 19.7791 32.7446 20.6727C32.4647 21.105 32.3027 21.6383 32.3322 22.2004C32.3616 22.6327 32.2291 23.0651 31.9934 23.4686C31.2423 24.6936 29.5779 25.1548 28.2966 24.463C26.8237 23.6271 24.9974 24.1316 24.1431 25.5584L23.1563 27.259C22.3168 28.6858 22.7881 30.5161 24.2462 31.3376C25.4982 32.0726 25.94 33.7011 25.2036 34.9406C24.9532 35.3297 24.6881 35.6612 24.2757 35.863C23.7749 36.1368 23.3331 36.5691 23.0974 37.0015C22.5525 37.895 22.5819 39.0192 23.1269 39.956L24.1431 41.6854C24.6881 42.6078 25.7043 43.1843 26.7648 43.1843C27.2656 43.1843 27.8547 43.0401 28.326 42.7519C28.6942 42.5069 29.1361 42.4204 29.6221 42.4204C31.0802 42.4204 32.3027 43.6166 32.3322 45.0434C32.3322 46.7008 33.6872 47.9979 35.3957 47.9979H37.3988C39.0925 47.9979 40.4476 46.7008 40.4476 45.0434C40.4917 43.6166 41.7142 42.4204 43.1723 42.4204C43.6436 42.4204 44.0855 42.5069 44.4684 42.7519C44.9397 43.0401 45.5141 43.1843 46.0296 43.1843C47.0754 43.1843 48.0916 42.6078 48.6366 41.6854L49.6676 39.956C50.1978 38.9904 50.242 37.895 49.697 37.0015Z" fill="#FF749F" fill-opacity="0.6"/>
<path d="M48.8575 37.5449C49.1576 38.0085 49.7768 38.1411 50.2404 37.841C50.704 37.5409 50.8366 36.9218 50.5365 36.4581L48.8575 37.5449ZM48.504 35.863L48.9731 34.9798C48.9634 34.9746 48.9535 34.9696 48.9435 34.9647L48.504 35.863ZM47.5909 34.9406L48.4462 34.4226L48.4461 34.4223L47.5909 34.9406ZM48.5335 31.3376L48.0464 30.4642C48.0399 30.4678 48.0335 30.4715 48.0272 30.4752L48.5335 31.3376ZM49.6234 27.259L48.7584 27.7609L48.7654 27.7727L49.6234 27.259ZM48.6366 25.5584L49.5015 25.0565L49.4985 25.0512L48.6366 25.5584ZM44.4979 24.463L44.9687 25.3452C44.9776 25.3405 44.9865 25.3356 44.9952 25.3306L44.4979 24.463ZM40.7863 23.4686L39.9228 23.9729C39.9264 23.9791 39.9301 23.9852 39.9338 23.9913L40.7863 23.4686ZM40.4476 22.2004L39.4506 22.122L39.4499 22.1324L40.4476 22.2004ZM40.0499 20.6727L39.1961 21.1934L39.1974 21.1954L40.0499 20.6727ZM35.3515 19.1738V18.1738C35.3426 18.1738 35.3336 18.1739 35.3247 18.1742L35.3515 19.1738ZM32.7446 20.6727L33.5841 21.216C33.5889 21.2085 33.5937 21.201 33.5983 21.1934L32.7446 20.6727ZM32.3322 22.2004L31.3335 22.2527C31.3338 22.2579 31.3341 22.2631 31.3345 22.2683L32.3322 22.2004ZM31.9934 23.4686L32.8459 23.9913C32.8497 23.9852 32.8533 23.9791 32.8569 23.9729L31.9934 23.4686ZM28.2966 24.463L27.803 25.3327C27.8091 25.3362 27.8153 25.3396 27.8215 25.343L28.2966 24.463ZM24.1431 25.5584L23.2851 25.0446L23.2782 25.0565L24.1431 25.5584ZM23.1563 27.259L24.0182 27.7661L24.0213 27.7609L23.1563 27.259ZM24.2462 31.3376L24.7525 30.4752C24.7474 30.4722 24.7423 30.4692 24.7371 30.4663L24.2462 31.3376ZM25.2036 34.9406L26.0445 35.4817C26.051 35.4717 26.0572 35.4616 26.0633 35.4514L25.2036 34.9406ZM24.2757 35.863L23.8362 34.9647C23.8226 34.9713 23.8092 34.9783 23.7959 34.9856L24.2757 35.863ZM23.0974 37.0015L23.9512 37.5222C23.9596 37.5083 23.9677 37.4943 23.9755 37.4801L23.0974 37.0015ZM23.1269 39.956L22.2625 40.4588L22.2647 40.4626L23.1269 39.956ZM24.1431 41.6854L23.281 42.192L23.2822 42.1941L24.1431 41.6854ZM28.326 42.7519L28.8478 43.605C28.8586 43.5984 28.8694 43.5915 28.88 43.5844L28.326 42.7519ZM32.3322 45.0434H33.3322C33.3322 45.0365 33.3321 45.0296 33.332 45.0228L32.3322 45.0434ZM40.4476 45.0434L39.448 45.0125C39.4477 45.0228 39.4476 45.0331 39.4476 45.0434H40.4476ZM44.4684 42.7519L43.9295 43.5942C43.9352 43.5979 43.9409 43.6015 43.9467 43.605L44.4684 42.7519ZM48.6366 41.6854L47.7776 41.1733L47.7756 41.1767L48.6366 41.6854ZM49.6676 39.956L50.5265 40.468C50.5326 40.4579 50.5384 40.4476 50.5441 40.4373L49.6676 39.956ZM50.5508 36.4808C50.2632 36.0093 49.6479 35.8602 49.1764 36.1478C48.7048 36.4353 48.5557 37.0507 48.8433 37.5222L50.5508 36.4808ZM50.5365 36.4581C50.1937 35.9284 49.6806 35.3556 48.9731 34.9798L48.0349 36.7461C48.3584 36.9179 48.6407 37.2099 48.8575 37.5449L50.5365 36.4581ZM48.9435 34.9647C48.7857 34.8875 48.6441 34.7494 48.4462 34.4226L46.7355 35.4586C47.0089 35.9101 47.3976 36.4349 48.0646 36.7612L48.9435 34.9647ZM48.4461 34.4223C47.9949 33.6779 48.2504 32.6634 49.0398 32.1999L48.0272 30.4752C46.3127 31.4818 45.6845 33.7244 46.7357 35.4589L48.4461 34.4223ZM49.0206 32.2109C50.9912 31.1118 51.6226 28.6514 50.4814 26.7453L48.7654 27.7727C49.3327 28.7202 49.0214 29.9204 48.0464 30.4642L49.0206 32.2109ZM50.4883 26.7571L49.5015 25.0565L47.7717 26.0602L48.7585 27.7609L50.4883 26.7571ZM49.4985 25.0512C48.3832 23.1558 45.9375 22.4851 44.0005 23.5955L44.9952 25.3306C45.9745 24.7692 47.2109 25.1073 47.7747 26.0655L49.4985 25.0512ZM44.027 23.5808C43.1964 24.0242 42.1126 23.7186 41.6388 22.9459L39.9338 23.9913C40.9623 25.6687 43.2072 26.2854 44.9687 25.3452L44.027 23.5808ZM41.6498 22.9643C41.4852 22.6824 41.433 22.4487 41.4452 22.2683L39.4499 22.1324C39.4032 22.8168 39.6161 23.4478 39.9228 23.9729L41.6498 22.9643ZM41.4445 22.2787C41.509 21.4585 41.2501 20.717 40.9024 20.1499L39.1974 21.1954C39.3799 21.4931 39.4745 21.818 39.4506 22.122L41.4445 22.2787ZM40.9036 20.152C40.1903 18.9824 38.8914 18.1738 37.4282 18.1738V20.1738C38.1448 20.1738 38.8195 20.5759 39.1961 21.1934L40.9036 20.152ZM37.4282 18.1738H35.3515V20.1738H37.4282V18.1738ZM35.3247 18.1742C33.9124 18.212 32.6134 18.9672 31.8908 20.152L33.5983 21.1934C33.9657 20.591 34.6402 20.1933 35.3783 20.1735L35.3247 18.1742ZM31.9051 20.1293C31.5191 20.7256 31.2923 21.4654 31.3335 22.2527L33.3308 22.148C33.3131 21.8112 33.4103 21.4844 33.5841 21.216L31.9051 20.1293ZM31.3345 22.2683C31.3468 22.4487 31.2945 22.6824 31.1299 22.9643L32.8569 23.9729C33.1636 23.4478 33.3765 22.8168 33.3299 22.1324L31.3345 22.2683ZM31.1409 22.9459C30.6651 23.7218 29.5822 24.0207 28.7716 23.5831L27.8215 25.343C29.5737 26.289 31.8194 25.6654 32.8459 23.9913L31.1409 22.9459ZM28.7901 23.5933C26.8386 22.4858 24.4148 23.158 23.2852 25.0447L25.0011 26.072C25.58 25.1052 26.8088 24.7685 27.803 25.3327L28.7901 23.5933ZM23.2782 25.0565L22.2914 26.7571L24.0213 27.7609L25.0081 26.0602L23.2782 25.0565ZM22.2945 26.7518C21.1756 28.6534 21.802 31.1083 23.7554 32.2088L24.7371 30.4663C23.7742 29.9239 23.458 28.7182 24.0182 27.7661L22.2945 26.7518ZM23.7399 32.1999C24.5293 32.6634 24.7881 33.6822 24.3439 34.4298L26.0633 35.4514C27.0919 33.7201 26.467 31.4818 24.7525 30.4752L23.7399 32.1999ZM24.3626 34.3995C24.1394 34.7464 23.9968 34.8861 23.8362 34.9647L24.7152 36.7612C25.3794 36.4362 25.767 35.913 26.0445 35.4817L24.3626 34.3995ZM23.7959 34.9856C23.1471 35.3404 22.5572 35.9031 22.2194 36.5229L23.9755 37.4801C24.1089 37.2352 24.4028 36.9332 24.7555 36.7403L23.7959 34.9856ZM22.2437 36.4808C21.4879 37.7199 21.5527 39.2388 22.2625 40.4588L23.9912 39.4531C23.6111 38.7996 23.617 38.0702 23.9512 37.5222L22.2437 36.4808ZM22.2647 40.4626L23.281 42.192L25.0053 41.1788L23.989 39.4493L22.2647 40.4626ZM23.2822 42.1941C24.0072 43.4212 25.3509 44.1843 26.7648 44.1843V42.1843C26.0578 42.1843 25.369 41.7944 25.0041 41.1767L23.2822 42.1941ZM26.7648 44.1843C27.432 44.1843 28.2049 43.9982 28.8478 43.605L27.8043 41.8988C27.5045 42.0821 27.0992 42.1843 26.7648 42.1843V44.1843ZM28.88 43.5844C29.0237 43.4888 29.2455 43.4204 29.6221 43.4204V41.4204C29.0267 41.4204 28.3647 41.525 27.7721 41.9194L28.88 43.5844ZM29.6221 43.4204C30.544 43.4204 31.3143 44.1894 31.3324 45.0641L33.332 45.0228C33.2911 43.0439 31.6164 41.4204 29.6221 41.4204V43.4204ZM31.3322 45.0434C31.3322 47.289 33.1716 48.9979 35.3957 48.9979V46.9979C34.2028 46.9979 33.3322 46.1125 33.3322 45.0434H31.3322ZM35.3957 48.9979H37.3988V46.9979H35.3957V48.9979ZM37.3988 48.9979C39.6114 48.9979 41.4476 47.286 41.4476 45.0434H39.4476C39.4476 46.1156 38.5737 46.9979 37.3988 46.9979V48.9979ZM41.4471 45.0744C41.4745 44.1894 42.2526 43.4204 43.1723 43.4204V41.4204C41.1758 41.4204 39.509 43.0438 39.448 45.0125L41.4471 45.0744ZM43.1723 43.4204C43.5257 43.4204 43.7596 43.4855 43.9295 43.5942L45.0074 41.9096C44.4114 41.5283 43.7616 41.4204 43.1723 41.4204V43.4204ZM43.9467 43.605C44.5876 43.997 45.3453 44.1843 46.0296 44.1843V42.1843C45.683 42.1843 45.2919 42.0833 44.9902 41.8988L43.9467 43.605ZM46.0296 44.1843C47.4315 44.1843 48.7739 43.4188 49.4975 42.1941L47.7756 41.1767C47.4093 41.7967 46.7192 42.1843 46.0296 42.1843V44.1843ZM49.4955 42.1975L50.5265 40.468L48.8086 39.4439L47.7776 41.1734L49.4955 42.1975ZM50.5441 40.4373C51.2153 39.2149 51.3139 37.7321 50.5508 36.4808L48.8433 37.5222C49.1701 38.058 49.1803 38.7658 48.791 39.4746L50.5441 40.4373Z" fill="url(#paint1_linear_1136_39087)" mask="url(#path-4-outside-1_1136_39087)"/>
</g>
<g filter="url(#filter3_bd_1136_39087)">
<path d="M36.4134 37.551C34.101 37.551 32.2305 35.7495 32.2305 33.4868C32.2305 31.2241 34.101 29.4082 36.4134 29.4082C38.7257 29.4082 40.5521 31.2241 40.5521 33.4868C40.5521 35.7495 38.7257 37.551 36.4134 37.551Z" fill="url(#paint2_linear_1136_39087)"/>
<path d="M36.4134 37.351C34.2055 37.351 32.4305 35.6331 32.4305 33.4868C32.4305 31.3396 34.2064 29.6082 36.4134 29.6082C38.6175 29.6082 40.3521 31.3368 40.3521 33.4868C40.3521 35.6359 38.6184 37.351 36.4134 37.351Z" stroke="url(#paint3_linear_1136_39087)" stroke-width="0.4"/>
</g>
<defs>
<filter id="filter0_b_1136_39087" x="3" y="3" width="48.5898" height="50" filterUnits="userSpaceOnUse" color-interpolation-filters="sRGB">
<feFlood flood-opacity="0" result="BackgroundImageFix"/>
<feGaussianBlur in="BackgroundImageFix" stdDeviation="6.5"/>
<feComposite in2="SourceAlpha" operator="in" result="effect1_backgroundBlur_1136_39087"/>
<feBlend mode="normal" in="SourceGraphic" in2="effect1_backgroundBlur_1136_39087" result="shape"/>
</filter>
<filter id="filter1_f_1136_39087" x="5.54688" y="5.89062" width="43.6484" height="44.3535" filterUnits="userSpaceOnUse" color-interpolation-filters="sRGB">
<feFlood flood-opacity="0" result="BackgroundImageFix"/>
<feBlend mode="normal" in="SourceGraphic" in2="BackgroundImageFix" result="shape"/>
<feGaussianBlur stdDeviation="8" result="effect1_foregroundBlur_1136_39087"/>
</filter>
<filter id="filter2_b_1136_39087" x="-2.29688" y="-5.82617" width="77.3828" height="78.8242" filterUnits="userSpaceOnUse" color-interpolation-filters="sRGB">
<feFlood flood-opacity="0" result="BackgroundImageFix"/>
<feGaussianBlur in="BackgroundImageFix" stdDeviation="12"/>
<feComposite in2="SourceAlpha" operator="in" result="effect1_backgroundBlur_1136_39087"/>
<feBlend mode="normal" in="SourceGraphic" in2="effect1_backgroundBlur_1136_39087" result="shape"/>
</filter>
<filter id="filter3_bd_1136_39087" x="17.2305" y="14.4082" width="38.3203" height="38.1426" filterUnits="userSpaceOnUse" color-interpolation-filters="sRGB">
<feFlood flood-opacity="0" result="BackgroundImageFix"/>
<feGaussianBlur in="BackgroundImageFix" stdDeviation="7.5"/>
<feComposite in2="SourceAlpha" operator="in" result="effect1_backgroundBlur_1136_39087"/>
<feColorMatrix in="SourceAlpha" type="matrix" values="0 0 0 0 0 0 0 0 0 0 0 0 0 0 0 0 0 0 127 0" result="hardAlpha"/>
<feOffset dx="5" dy="5"/>
<feGaussianBlur stdDeviation="5"/>
<feColorMatrix type="matrix" values="0 0 0 0 1 0 0 0 0 0.321569 0 0 0 0 0.54902 0 0 0 0.5 0"/>
<feBlend mode="normal" in2="effect1_backgroundBlur_1136_39087" result="effect2_dropShadow_1136_39087"/>
<feBlend mode="normal" in="SourceGraphic" in2="effect2_dropShadow_1136_39087" result="shape"/>
</filter>
<linearGradient id="paint0_linear_1136_39087" x1="28.9573" y1="29.6074" x2="8.66585" y2="38.8932" gradientUnits="userSpaceOnUse">
<stop stop-color="#FF759F"/>
<stop offset="1" stop-color="#FF196E"/>
</linearGradient>
<linearGradient id="paint1_linear_1136_39087" x1="27.062" y1="22.5319" x2="45.625" y2="44.373" gradientUnits="userSpaceOnUse">
<stop stop-color="white" stop-opacity="0.25"/>
<stop offset="1" stop-color="white" stop-opacity="0"/>
</linearGradient>
<linearGradient id="paint2_linear_1136_39087" x1="39.9621" y1="30.8786" x2="30.693" y2="31.1875" gradientUnits="userSpaceOnUse">
<stop stop-color="white"/>
<stop offset="1" stop-color="white" stop-opacity="0.2"/>
</linearGradient>
<linearGradient id="paint3_linear_1136_39087" x1="33.5551" y1="30.3568" x2="38.7245" y2="36.8998" gradientUnits="userSpaceOnUse">
<stop stop-color="white" stop-opacity="0.25"/>
<stop offset="1" stop-color="white" stop-opacity="0"/>
</linearGradient>
</defs>
</svg>
