<svg width="498" height="301" viewBox="0 0 498 301" fill="none" xmlns="http://www.w3.org/2000/svg">
<g filter="url(#filter0_d_232_4485)">
<path opacity="0.0526316" d="M23.5925 404.757C34.3447 419.062 68.71 442.999 120.153 424.31C184.457 400.948 209.327 339.023 266.72 306.914C309.08 283.215 422.902 247.642 488.352 286.951" stroke="#E5E7EB" stroke-width="2.67265"/>
<path opacity="0.105263" d="M12.9872 374.768C22.1853 390.118 53.8601 417.517 106.975 404.307C173.369 387.795 204.576 328.809 265.01 302.875C309.615 283.734 426.533 260.253 487.515 306.188" stroke="#E5E7EB" stroke-width="2.67265"/>
<path opacity="0.157895" d="M4.97473 344.374C12.5178 360.602 41.1552 391.161 95.3601 383.576C163.116 374.094 200.318 318.693 263.132 299.218C309.493 284.845 428.225 273.714 484.071 325.771" stroke="#E5E7EB" stroke-width="2.67265"/>
<path opacity="0.210526" d="M-0.416016 313.849C5.38949 330.777 30.6757 364.162 85.3764 362.284C153.752 359.937 196.541 308.728 261.047 295.926C308.657 286.477 427.901 287.818 478.001 345.428" stroke="#E5E7EB" stroke-width="2.67265"/>
<path opacity="0.263158" d="M-3.1861 283.468C0.818206 300.91 22.4762 336.756 77.0735 340.606C145.32 345.419 193.227 298.963 258.718 292.974C307.055 288.553 425.506 302.351 469.309 364.882" stroke="#E5E7EB" stroke-width="2.67265"/>
<path opacity="0.315789" d="M-3.36415 253.503C-1.20492 271.268 16.5875 309.181 70.4833 318.717C137.853 330.637 190.354 289.444 256.111 290.333C304.646 290.989 421.006 317.093 458.032 383.86" stroke="#E5E7EB" stroke-width="2.67265"/>
<path opacity="0.368421" d="M-1.00922 224.223C-0.718719 242.116 13.0132 281.682 65.617 296.799C131.372 315.697 187.891 280.216 253.195 287.974C301.395 293.7 414.389 331.824 444.234 402.096" stroke="#E5E7EB" stroke-width="2.67265"/>
<path opacity="0.421053" d="M3.79448 195.891C2.21307 213.716 11.7341 254.5 62.4694 275.034C125.889 300.7 185.807 271.322 249.943 285.864C297.28 296.596 405.67 346.322 428.006 419.329" stroke="#E5E7EB" stroke-width="2.67265"/>
<path opacity="0.473684" d="M10.9338 168.754C7.49775 186.316 12.7035 227.872 61.0146 253.596C121.403 285.751 184.064 262.797 246.329 283.963C292.285 299.585 394.883 360.369 409.465 435.31" stroke="#E5E7EB" stroke-width="2.67265"/>
<path opacity="0.526316" d="M20.2706 143.054C15.0177 160.161 15.8512 202.034 61.2087 232.667C117.906 270.958 182.622 254.68 242.333 282.238C286.405 302.578 382.087 373.753 388.756 449.808" stroke="#E5E7EB" stroke-width="2.67265"/>
<path opacity="0.578947" d="M31.6442 119.008C24.6319 135.472 21.084 177.202 62.9909 212.408C115.375 256.417 181.438 246.992 237.942 280.641C279.646 305.476 367.364 386.263 366.047 462.599" stroke="#E5E7EB" stroke-width="2.67265"/>
<path opacity="0.631579" d="M44.8694 96.8219C36.1745 112.463 28.2841 153.593 66.2814 192.988C113.778 242.23 180.465 239.763 233.142 279.134C272.021 308.192 350.815 397.705 341.525 473.485" stroke="#E5E7EB" stroke-width="2.67265"/>
<path opacity="0.684211" d="M59.741 76.6821C49.4588 91.3286 37.3123 131.409 70.9837 174.559C113.073 228.497 179.652 233.014 227.925 277.675C263.554 310.638 332.559 407.897 315.399 482.291" stroke="#E5E7EB" stroke-width="2.67265"/>
<path opacity="0.736842" d="M76.0374 58.7464C64.2806 72.2378 48.0111 110.829 76.9876 157.262C113.208 215.304 178.951 226.756 222.291 276.218C254.279 312.725 312.74 416.664 287.898 488.857" stroke="#E5E7EB" stroke-width="2.67265"/>
<path opacity="0.789474" d="M93.5204 43.1515C80.4177 55.3401 60.2034 92.0193 84.1675 141.227C114.123 202.737 178.308 220.998 216.24 274.72C244.237 314.37 291.513 423.851 259.261 493.051" stroke="#E5E7EB" stroke-width="2.67265"/>
<path opacity="0.842105" d="M111.938 30.0073C97.633 40.7595 73.6954 75.1248 92.3846 126.568C115.746 190.872 177.671 215.742 209.78 273.135C233.479 315.494 269.052 429.317 229.743 494.767" stroke="#E5E7EB" stroke-width="2.67265"/>
<path opacity="0.894737" d="M131.029 19.4022C115.679 28.6003 88.28 60.2751 101.49 113.39C118.002 179.784 176.988 210.991 202.922 271.425C222.063 316.03 245.544 432.948 199.609 493.93" stroke="#E5E7EB" stroke-width="2.67265"/>
<path opacity="0.947368" d="M150.524 11.3921C134.297 18.9352 103.737 47.5726 111.322 101.777C120.804 169.533 176.205 206.735 195.68 269.549C210.054 315.91 221.184 434.642 169.127 490.489" stroke="#E5E7EB" stroke-width="2.67265"/>
<path d="M170.151 6C153.224 11.8055 119.839 37.0917 121.716 91.7925C124.063 160.168 175.272 202.957 188.075 267.463C197.524 315.073 196.183 434.317 138.573 484.417" stroke="#E5E7EB" stroke-width="2.67265"/>
</g>
<defs>
<filter id="filter0_d_232_4485" x="-13.5404" y="0.31146" width="511.43" height="508.418" filterUnits="userSpaceOnUse" color-interpolation-filters="sRGB">
<feFlood flood-opacity="0" result="BackgroundImageFix"/>
<feColorMatrix in="SourceAlpha" type="matrix" values="0 0 0 0 0 0 0 0 0 0 0 0 0 0 0 0 0 0 127 0" result="hardAlpha"/>
<feOffset dy="4.42487"/>
<feGaussianBlur stdDeviation="4.42487"/>
<feComposite in2="hardAlpha" operator="out"/>
<feColorMatrix type="matrix" values="0 0 0 0 0 0 0 0 0 0 0 0 0 0 0 0 0 0 0.06 0"/>
<feBlend mode="normal" in2="BackgroundImageFix" result="effect1_dropShadow_232_4485"/>
<feBlend mode="normal" in="SourceGraphic" in2="effect1_dropShadow_232_4485" result="shape"/>
</filter>
</defs>
</svg>
