<svg width="48" height="48" viewBox="0 0 48 48" fill="none" xmlns="http://www.w3.org/2000/svg">
<path opacity="0.4" d="M4.19922 43.9995V12.0596C4.19922 8.03957 6.19932 6.01953 10.1793 6.01953H22.6393C26.6193 6.01953 28.5992 8.03957 28.5992 12.0596V43.9995" fill="#CA024F"/>
<path d="M21.4996 18H11.5996C10.7796 18 10.0996 17.32 10.0996 16.5C10.0996 15.68 10.7796 15 11.5996 15H21.4996C22.3196 15 22.9996 15.68 22.9996 16.5C22.9996 17.32 22.3196 18 21.4996 18Z" fill="#CA024F"/>
<path d="M21.4996 25.5H11.5996C10.7796 25.5 10.0996 24.82 10.0996 24C10.0996 23.18 10.7796 22.5 11.5996 22.5H21.4996C22.3196 22.5 22.9996 23.18 22.9996 24C22.9996 24.82 22.3196 25.5 21.4996 25.5Z" fill="#CA024F"/>
<path d="M16.5 45.5C15.68 45.5 15 44.82 15 44V36.5C15 35.68 15.68 35 16.5 35C17.32 35 18 35.68 18 36.5V44C18 44.82 17.32 45.5 16.5 45.5Z" fill="#CA024F"/>
<path d="M46 42.5002H41.46V36.5002C43.36 35.8802 44.74 34.1002 44.74 32.0002V28.0002C44.74 25.3802 42.6 23.2402 39.98 23.2402C37.36 23.2402 35.22 25.3802 35.22 28.0002V32.0002C35.22 34.0802 36.5799 35.8402 38.4399 36.4802V42.5002H2C1.18 42.5002 0.5 43.1802 0.5 44.0002C0.5 44.8202 1.18 45.5002 2 45.5002H39.86C39.9 45.5002 39.92 45.5203 39.96 45.5203C40 45.5203 40.0201 45.5002 40.0601 45.5002H46C46.82 45.5002 47.5 44.8202 47.5 44.0002C47.5 43.1802 46.82 42.5002 46 42.5002Z" fill="#CA024F"/>
</svg>
