<svg width="48" height="48" viewBox="0 0 48 48" fill="none" xmlns="http://www.w3.org/2000/svg">
<path opacity="0.4" d="M24 44C35.0457 44 44 35.0457 44 24C44 12.9543 35.0457 4 24 4C12.9543 4 4 12.9543 4 24C4 35.0457 12.9543 44 24 44Z" fill="#00BD13"/>
<path d="M21.1609 31.1592C20.7609 31.1592 20.3809 30.9992 20.1009 30.7192L14.4409 25.0592C13.8609 24.4792 13.8609 23.5192 14.4409 22.9392C15.0209 22.3592 15.9809 22.3592 16.5609 22.9392L21.1609 27.5392L31.4409 17.2592C32.0209 16.6792 32.9809 16.6792 33.5609 17.2592C34.1409 17.8392 34.1409 18.7992 33.5609 19.3792L22.2209 30.7192C21.9409 30.9992 21.5609 31.1592 21.1609 31.1592Z" fill="#00BD13"/>
</svg>
