<svg width="48" height="48" viewBox="0 0 48 48" fill="none" xmlns="http://www.w3.org/2000/svg">
<path d="M24 24C29.5228 24 34 19.5228 34 14C34 8.47715 29.5228 4 24 4C18.4772 4 14 8.47715 14 14C14 19.5228 18.4772 24 24 24Z" fill="#50C8FC"/>
<path opacity="0.4" d="M24.0004 29C13.9804 29 5.82031 35.72 5.82031 44C5.82031 44.56 6.26031 45 6.82031 45H41.1804C41.7404 45 42.1804 44.56 42.1804 44C42.1804 35.72 34.0204 29 24.0004 29Z" fill="#50C8FC"/>
<path d="M45.54 41.3595L44.02 39.8395C44.82 38.6395 45.28 37.1995 45.28 35.6595C45.28 31.4395 41.86 28.0195 37.64 28.0195C33.42 28.0195 30 31.4395 30 35.6595C30 39.8795 33.42 43.2996 37.64 43.2996C39.18 43.2996 40.6199 42.8396 41.8199 42.0396L43.34 43.5596C43.64 43.8596 44.0399 44.0195 44.4399 44.0195C44.8399 44.0195 45.24 43.8596 45.54 43.5596C46.16 42.9396 46.16 41.9595 45.54 41.3595Z" fill="#50C8FC"/>
</svg>
