<svg width="100px" height="80px" viewBox="0 0 116 116" fill="none" xmlns="http://www.w3.org/2000/svg">
<g clip-path="url(#clip0_2_248)">
<path d="M3.2712 84.5833L5.82997 81.6833C4.58224 80.5818 3.86715 78.9977 3.86667 77.3333V9.66667C3.87029 6.46507 6.46507 3.87029 9.66667 3.86667H106.333C109.535 3.87029 112.13 6.46507 112.133 9.66667V77.3333C112.13 80.5349 109.535 83.1297 106.333 83.1333H73.4667V87H106.333C111.67 86.994 115.994 82.6696 116 77.3333V9.66667C115.994 4.33043 111.67 0.00604167 106.333 0H9.66667C4.33043 0.00604167 0.00604167 4.33043 0 9.66667V77.3333C0.000725 80.1072 1.1919 82.7474 3.2712 84.5833Z" fill="#009A14"/>
<path d="M9.6665 7.7334H13.5332V11.6001H9.6665V7.7334Z" fill="#009A14"/>
<path d="M17.3999 7.7334H21.2666V11.6001H17.3999V7.7334Z" fill="#009A14"/>
<path d="M25.1333 7.7334H29V11.6001H25.1333V7.7334Z" fill="#009A14"/>
<path d="M9.6665 15.4668H106.333V19.3335H9.6665V15.4668Z" fill="#009A14"/>
<path d="M92.7999 27.0664C85.3257 27.0664 79.2666 33.1255 79.2666 40.5997C79.2666 48.074 85.3257 54.1331 92.7999 54.1331C100.274 54.1331 106.333 48.074 106.333 40.5997C106.325 33.1291 100.271 27.0749 92.7999 27.0664ZM92.7999 50.2664C87.4613 50.2664 83.1333 45.9384 83.1333 40.5997C83.1333 35.2611 87.4613 30.9331 92.7999 30.9331C98.1386 30.9331 102.467 35.2611 102.467 40.5997C102.461 45.936 98.1362 50.2604 92.7999 50.2664Z" fill="#009A14"/>
<path d="M97.2328 35.3662L90.8666 41.7327L88.367 39.2329L85.6328 41.9671L89.4995 45.8338C90.2544 46.5887 91.4785 46.5887 92.2337 45.8338L99.967 38.1004L97.2328 35.3662Z" fill="#009A14"/>
<path d="M83.1333 58H102.467V61.8667H83.1333V58Z" fill="#009A14"/>
<path d="M83.1333 65.7334H102.467V69.6001H83.1333V65.7334Z" fill="#009A14"/>
<path d="M58.0001 27.0664C50.5259 27.0664 44.4668 33.1255 44.4668 40.5997C44.4668 48.074 50.5259 54.1331 58.0001 54.1331C65.4744 54.1331 71.5335 48.074 71.5335 40.5997C71.525 33.1291 65.471 27.0749 58.0001 27.0664ZM58.0001 50.2664C52.6615 50.2664 48.3335 45.9384 48.3335 40.5997C48.3335 35.2611 52.6615 30.9331 58.0001 30.9331C63.3388 30.9331 67.6668 35.2611 67.6668 40.5997C67.6608 45.936 63.3364 50.2604 58.0001 50.2664Z" fill="#009A14"/>
<path d="M62.433 35.3662L56.0668 41.7327L53.5672 39.2329L50.833 41.9671L54.6997 45.8338C55.4546 46.5887 56.6787 46.5887 57.4339 45.8338L65.1672 38.1004L62.433 35.3662Z" fill="#009A14"/>
<path d="M48.3335 58H67.6668V61.8667H48.3335V58Z" fill="#009A14"/>
<path d="M48.3335 65.7334H67.6668V69.6001H48.3335V65.7334Z" fill="#009A14"/>
<path d="M23.1998 30.9337C26.442 30.9332 29.4682 32.5591 31.2572 35.2632L34.4772 33.1227C30.3483 26.8935 21.9516 25.1907 15.7224 29.3194C11.9399 31.8264 9.66602 36.0626 9.6665 40.6004C9.6665 41.3553 9.7291 42.1091 9.85355 42.8539L13.6671 42.214C13.5779 41.6809 13.5332 41.141 13.5332 40.6004C13.5392 35.2641 17.8636 30.9397 23.1998 30.9337Z" fill="#009A14"/>
<path d="M1.93337 116H56.0667C56.3773 116 56.683 115.925 56.958 115.781C62.8752 114.878 68.295 111.231 70.835 106.334H81.2C81.7129 106.334 82.2047 106.13 82.5672 105.767L85.0667 103.268L87.5663 105.767C87.9288 106.13 88.4206 106.334 88.9334 106.334H92.8C93.3129 106.334 93.8047 106.13 94.1672 105.767L96.6667 103.268L99.1663 105.767C99.5288 106.13 100.021 106.334 100.533 106.334H104.4C105.047 106.334 105.65 106.01 106.009 105.473L109.875 99.6728C110.308 99.0234 110.308 98.1771 109.875 97.5277L106.009 91.7277C105.65 91.19 105.047 90.8669 104.4 90.8669H70.835C67.8936 85.1974 61.0958 81.2002 54.1334 81.2002C50.6925 81.1966 47.329 82.2191 44.4723 84.137L43.1499 83.6104C42.9676 83.5398 42.79 83.4579 42.6182 83.3649C42.6022 83.3562 42.5865 83.3479 42.5699 83.3407C39.0543 81.5528 37.6539 77.2536 39.4417 73.7381C39.7225 73.1861 40.0739 72.6728 40.4869 72.2115C43.051 69.3765 44.4696 65.6894 44.4667 61.8669V54.6943C44.4667 48.5216 40.9756 42.8238 35.5789 40.1814C33.6814 39.243 31.6033 38.7266 29.4872 38.6669C27.4841 38.599 25.4872 38.9286 23.6121 39.6367C22.0144 40.2182 20.5301 41.0727 19.2249 42.1621C15.6327 45.1006 13.5447 49.4926 13.5334 54.1336V61.8669C13.5404 65.6886 14.9582 69.3731 17.5148 72.2136C19.698 74.6545 19.9414 78.2674 18.105 80.9786C18.0968 80.9905 18.0888 81.0028 18.0808 81.0149C17.4288 82.0135 16.5165 82.8148 15.4425 83.333C15.4218 83.3431 15.4012 83.3537 15.3809 83.3649C15.2091 83.4579 15.0315 83.5398 14.8492 83.6104L14.8251 83.6196L6.06201 87.1211C2.39133 88.5911 -0.0110783 92.1521 3.84164e-05 96.1062V114.067C3.84164e-05 115.135 0.865689 116 1.93337 116ZM54.1334 85.0669C59.9757 85.0669 65.8542 88.7035 67.8081 93.5252C68.1034 94.2556 68.8125 94.7336 69.6 94.7336H103.365L105.943 98.6003L103.365 102.467H101.334L98.0338 99.1665C97.2789 98.4115 96.0548 98.4115 95.2996 99.1665L91.9994 102.467H89.734L86.4338 99.1665C85.6789 98.4115 84.4548 98.4115 83.6996 99.1665L80.3994 102.467H69.6C68.8125 102.467 68.1034 102.945 67.8081 103.675C65.8544 108.498 59.9757 112.134 54.1334 112.134C46.6591 112.134 40.6 106.075 40.6 98.6003C40.6 91.126 46.6591 85.0669 54.1334 85.0669ZM3.86671 96.1062C3.85946 93.7324 5.30051 91.5941 7.50355 90.7096L16.2502 87.2146C16.5697 87.0906 16.8814 86.9476 17.1835 86.7856C18.8573 85.9596 20.2809 84.7027 21.3083 83.1442C24.1411 78.959 23.76 73.3823 20.3839 69.6215C19.6333 68.7933 19.0095 67.8588 18.533 66.8479C18.5294 66.8404 18.5255 66.8327 18.5221 66.8252C17.7761 65.2792 17.3923 63.5835 17.4 61.8669V54.1336C17.4116 50.6562 18.9762 47.3657 21.6659 45.1617C21.6783 45.1518 21.6901 45.1419 21.7022 45.1317C22.673 44.3222 23.7776 43.688 24.9666 43.2586C26.37 42.7272 27.8652 42.4802 29.365 42.5319C30.9302 42.5751 32.4675 42.9567 33.8713 43.6506C37.9593 45.6523 40.6 49.9868 40.6 54.6943V61.8669C40.6025 64.7299 39.5408 67.492 37.6213 69.6162C33.5569 74.1371 33.9271 81.0968 38.4482 85.1612C39.1614 85.8023 39.9553 86.3475 40.8096 86.7827C40.9393 86.8521 41.0696 86.9149 41.1991 86.9761C34.778 94.1016 35.3491 105.083 42.4747 111.504C42.7151 111.721 42.9616 111.931 43.2137 112.134H3.86671V96.1062Z" fill="#009A14"/>
<path d="M50.2668 104.4C53.4701 104.4 56.0668 101.803 56.0668 98.5998C56.0668 95.3965 53.4701 92.7998 50.2668 92.7998C47.0635 92.7998 44.4668 95.3965 44.4668 98.5998C44.4704 101.802 47.065 104.396 50.2668 104.4ZM50.2668 96.6665C51.3345 96.6665 52.2001 97.5321 52.2001 98.5998C52.2001 99.6675 51.3345 100.533 50.2668 100.533C49.1991 100.533 48.3335 99.6675 48.3335 98.5998C48.3347 97.5326 49.1996 96.6677 50.2668 96.6665Z" fill="#009A14"/>
</g>
<defs>
<clipPath id="clip0_2_248">
<rect width="116" height="116" fill="white"/>
</clipPath>
</defs>
</svg>
