<svg width="100px" height="80px" viewBox="0 0 148 148" fill="none" xmlns="http://www.w3.org/2000/svg">
    <path d="M25.0008 52.3203H8.00391V60.9922H25.0008V52.3203Z" fill="#009A14"/>
    <path d="M25.0008 87.0078H8.00391V95.6797H25.0008V87.0078Z" fill="#009A14"/>
    <path d="M25.001 69.6641H0V78.3359H25.001V69.6641Z" fill="#009A14"/>
    <path d="M90.8359 16.8369C59.316 16.8369 33.6724 42.4805 33.6724 74.0005C33.6724 105.52 59.3157 131.164 90.8359 131.164C122.356 131.164 148 105.52 148 74.0005C148 42.4805 122.356 16.8369 90.8359 16.8369ZM90.8359 122.492C64.0976 122.492 42.3442 100.739 42.3442 74.0005C42.3442 47.2622 64.0976 25.5088 90.8359 25.5088C117.574 25.5088 139.328 47.2622 139.328 74.0005C139.328 100.739 117.574 122.492 90.8359 122.492Z" fill="#009A14"/>
    <path d="M93.6362 76.1548V48.1455H84.9644V80.739L107.311 95.9677L112.195 88.8016L93.6362 76.1548Z" fill="#009A14"/>
</svg>
