<svg width="36" height="35" viewBox="0 0 36 35" fill="none" xmlns="http://www.w3.org/2000/svg">
<circle cx="18" cy="17.5" r="17.5" fill="#00BD13"/>
<path opacity="0.4" d="M21.2891 12H15.7091C11.2891 12 11.2891 14.35 11.2891 16.42V18.21C11.2891 18.43 11.3891 18.63 11.5591 18.76C11.7291 18.89 11.9591 18.94 12.1691 18.88C12.6191 18.76 13.1791 18.7 13.8491 18.7C14.5191 18.7 14.6591 18.78 15.0591 19.08L15.9691 20.04C16.6191 20.74 17.5491 21.14 18.5091 21.14C19.4691 21.14 20.3891 20.74 21.0491 20.04L21.9591 19.08C22.3591 18.78 22.4991 18.7 23.1691 18.7C23.8391 18.7 24.3991 18.76 24.8491 18.88C25.0591 18.94 25.2791 18.89 25.4591 18.76C25.6291 18.63 25.7291 18.42 25.7291 18.21V16.42C25.7091 14.35 25.7091 12 21.2891 12Z" fill="white"/>
<path d="M20.7784 10.95C20.5184 11.21 20.0884 11.21 19.8284 10.95L19.1784 10.3V15.07C19.1784 15.44 18.8784 15.75 18.4984 15.75C18.1184 15.75 17.8184 15.45 17.8184 15.07V10.3L17.1684 10.95C16.9084 11.21 16.4784 11.21 16.2184 10.95C15.9584 10.69 15.9584 10.26 16.2184 10L18.0184 8.2C18.0284 8.19 18.0284 8.19 18.0384 8.19C18.0984 8.14 18.1584 8.09 18.2384 8.06C18.3284 8.02 18.4084 8 18.4984 8C18.5884 8 18.6684 8.02 18.7584 8.05C18.8384 8.08 18.9184 8.13 18.9784 8.2L20.7784 10C21.0384 10.26 21.0384 10.69 20.7784 10.95Z" fill="white"/>
<path d="M25.1897 17.5298C24.6197 17.3798 23.9497 17.2998 23.1497 17.2998C22.0397 17.2998 21.6297 17.5698 21.0597 17.9998C21.0297 18.0198 20.9997 18.0498 20.9697 18.0798L20.0197 19.0898C19.2197 19.9298 17.7797 19.9398 16.9797 19.0798L16.0297 18.0798C15.9997 18.0498 15.9697 18.0198 15.9397 17.9998C15.3697 17.5698 14.9597 17.2998 13.8497 17.2998C13.0497 17.2998 12.3797 17.3798 11.8097 17.5298C9.42969 18.1698 9.42969 20.0598 9.42969 21.7198V22.6498C9.42969 25.1598 9.42969 27.9998 14.7797 27.9998H22.2197C25.7697 27.9998 27.5697 26.1998 27.5697 22.6498V21.7198C27.5697 20.0598 27.5697 18.1698 25.1897 17.5298ZM20.8297 24.3998H16.1697C15.7897 24.3998 15.4797 24.0898 15.4797 23.6998C15.4797 23.3098 15.7897 22.9998 16.1697 22.9998H20.8297C21.2097 22.9998 21.5197 23.3098 21.5197 23.6998C21.5197 24.0898 21.2097 24.3998 20.8297 24.3998Z" fill="white"/>
<path opacity="0.4" d="M21.5205 23.7C21.5205 24.09 21.2105 24.4 20.8305 24.4H16.1705C15.7905 24.4 15.4805 24.09 15.4805 23.7C15.4805 23.31 15.7905 23 16.1705 23H20.8305C21.2105 23 21.5205 23.31 21.5205 23.7Z" fill="white"/>
</svg>
