<svg width="20" height="20" viewBox="0 0 20 20" fill="none" xmlns="http://www.w3.org/2000/svg">
<path d="M18.3333 5.54163H13.3333C13.3032 5.54163 13.2719 5.52934 13.2463 5.5037C13.2206 5.47805 13.2083 5.44677 13.2083 5.41663C13.2083 5.38648 13.2206 5.3552 13.2463 5.32955C13.2719 5.30391 13.3032 5.29163 13.3333 5.29163H18.3333C18.3635 5.29163 18.3948 5.30391 18.4204 5.32955C18.446 5.3552 18.4583 5.38648 18.4583 5.41663C18.4583 5.44677 18.446 5.47805 18.4204 5.5037C18.3948 5.52934 18.3635 5.54163 18.3333 5.54163Z" fill="#4B5563" stroke="#4B5563"/>
<path d="M5 5.54163H1.66667C1.63652 5.54163 1.60524 5.52934 1.5796 5.5037C1.55395 5.47805 1.54167 5.44677 1.54167 5.41663C1.54167 5.38648 1.55395 5.3552 1.5796 5.32955C1.60524 5.30391 1.63652 5.29163 1.66667 5.29163H5C5.03015 5.29163 5.06143 5.30391 5.08707 5.32955C5.11272 5.3552 5.125 5.38648 5.125 5.41663C5.125 5.44677 5.11272 5.47805 5.08707 5.5037C5.06143 5.52934 5.03015 5.54163 5 5.54163Z" fill="#4B5563" stroke="#4B5563"/>
<path d="M8.33333 8.45833C6.65948 8.45833 5.29167 7.09052 5.29167 5.41667C5.29167 3.74281 6.65948 2.375 8.33333 2.375C10.0072 2.375 11.375 3.74281 11.375 5.41667C11.375 7.09052 10.0072 8.45833 8.33333 8.45833ZM8.33333 2.625C6.79053 2.625 5.54167 3.87386 5.54167 5.41667C5.54167 6.95948 6.79053 8.20833 8.33333 8.20833C9.87614 8.20833 11.125 6.95948 11.125 5.41667C11.125 3.87386 9.87614 2.625 8.33333 2.625Z" stroke="#4B5563"/>
<path d="M18.3333 14.7084H15C14.9699 14.7084 14.9386 14.6961 14.9129 14.6704C14.8873 14.6448 14.875 14.6135 14.875 14.5834C14.875 14.5532 14.8873 14.5219 14.9129 14.4963C14.9386 14.4707 14.9699 14.4584 15 14.4584H18.3333C18.3635 14.4584 18.3948 14.4707 18.4204 14.4963C18.446 14.5219 18.4583 14.5532 18.4583 14.5834C18.4583 14.6135 18.446 14.6448 18.4204 14.6704C18.3948 14.6961 18.3635 14.7084 18.3333 14.7084Z" fill="#292D32" stroke="#4B5563"/>
<path d="M6.66667 15.2084H1.66667C1.325 15.2084 1.04167 14.925 1.04167 14.5834C1.04167 14.2417 1.325 13.9584 1.66667 13.9584H6.66667C7.00833 13.9584 7.29167 14.2417 7.29167 14.5834C7.29167 14.925 7.00833 15.2084 6.66667 15.2084Z" fill="#292D32"/>
<path d="M11.6667 18.125C9.71667 18.125 8.125 16.5333 8.125 14.5833C8.125 12.6333 9.71667 11.0416 11.6667 11.0416C13.6167 11.0416 15.2083 12.6333 15.2083 14.5833C15.2083 16.5333 13.6167 18.125 11.6667 18.125ZM11.6667 12.2916C10.4 12.2916 9.375 13.3166 9.375 14.5833C9.375 15.85 10.4 16.875 11.6667 16.875C12.9333 16.875 13.9583 15.85 13.9583 14.5833C13.9583 13.3166 12.9333 12.2916 11.6667 12.2916Z" fill="#292D32"/>
</svg>
