<svg width="100px" height="80px" viewBox="0 0 128 128" fill="none" xmlns="http://www.w3.org/2000/svg">
<g clip-path="url(#clip0_2_236)">
<path d="M116.599 22.1028C98.9875 17.2773 81.2728 9.76354 65.3695 0.374062C64.5248 -0.124687 63.4766 -0.124687 62.6321 0.374062C46.2701 10.0333 29.5126 17.1405 11.4014 22.1028C10.2314 22.423 9.42041 23.4865 9.42041 24.6998V52.2112C9.42041 80.5419 22.4901 99.2949 33.4546 110.038C45.2586 121.604 59.0086 128 64.0008 128C68.9925 128 82.7425 121.604 94.5465 110.038C105.511 99.2951 118.58 80.5422 118.58 52.2112V24.6995C118.58 23.4865 117.769 22.423 116.599 22.1028ZM113.195 52.211C113.195 78.6717 101.004 96.1704 90.7775 106.191C79.1698 117.565 66.759 122.615 64.0008 122.615C61.2426 122.615 48.8311 117.565 37.2231 106.191C26.9964 96.1701 14.8056 78.6717 14.8056 52.211V26.7435C32.1251 21.826 48.2546 14.9633 64.0013 5.81255C79.3548 14.7205 96.289 21.9245 113.195 26.7425V52.211Z" fill="#009A14"/>
<path d="M40.1347 26.4418C39.5897 25.0581 38.0265 24.3783 36.6425 24.9236C31.8325 26.8188 26.8955 28.5633 21.9688 30.1088C20.846 30.4613 20.082 31.5013 20.082 32.6778V43.0755C20.082 44.5625 21.2878 45.768 22.7745 45.768C24.2613 45.768 25.467 44.5625 25.467 43.0755V34.6455C29.8868 33.2155 34.3018 31.6338 38.6165 29.9336C40.0002 29.3888 40.68 27.8256 40.1347 26.4418Z" fill="#009A14"/>
<path d="M45.2494 26.9525C45.6107 26.9525 45.9774 26.8798 46.3292 26.7263L46.3787 26.7048C47.7409 26.1078 48.3544 24.5221 47.7574 23.1603C47.1599 21.7981 45.5652 21.1818 44.2044 21.7783L44.1609 21.7971C42.7979 22.3923 42.1824 23.9768 42.7777 25.3393C43.2194 26.3508 44.2107 26.9525 45.2494 26.9525Z" fill="#009A14"/>
<path d="M96.0803 86.8206C94.8361 86.0073 93.1676 86.3571 92.3533 87.6018C90.1346 90.9978 87.5316 94.2498 84.6156 97.2665C82.2176 99.747 79.6191 102.059 76.8923 104.138C75.7101 105.039 75.4826 106.729 76.3838 107.912C76.9141 108.606 77.7158 108.972 78.5268 108.972C79.0963 108.972 79.6701 108.792 80.1576 108.42C83.0988 106.177 85.9013 103.684 88.4868 101.01C91.6396 97.7485 94.4571 94.2285 96.8616 90.5473C97.6753 89.3023 97.3251 87.6338 96.0803 86.8206Z" fill="#009A14"/>
<path d="M70.6397 108.36L70.4852 108.451C69.1985 109.197 68.7587 110.844 69.5037 112.13C70.003 112.993 70.9067 113.474 71.8365 113.474C72.294 113.474 72.7585 113.358 73.1827 113.111L73.361 113.007C74.6442 112.255 75.0752 110.606 74.3237 109.323C73.5717 108.04 71.9222 107.61 70.6397 108.36Z" fill="#009A14"/>
<path d="M45.6475 58.5044C43.9942 56.8509 41.7955 55.9409 39.457 55.9409C37.1185 55.9409 34.9195 56.8511 33.2655 58.5044C29.8523 61.9184 29.8523 67.4734 33.2655 70.8871L49.1645 86.7856C50.818 88.4386 53.0167 89.3488 55.3555 89.3488C57.6942 89.3488 59.893 88.4386 61.5467 86.7851L94.7369 53.5946C98.1499 50.1799 98.1499 44.6257 94.7364 41.2129C93.0829 39.5594 90.8841 38.6494 88.5452 38.6494C86.2064 38.6494 84.0077 39.5597 82.3539 41.2129L55.3552 68.2116L45.6475 58.5044ZM86.1619 45.0209C86.7982 44.3847 87.6449 44.0344 88.5454 44.0344C89.4464 44.0344 90.2924 44.3847 90.9291 45.0209C92.2429 46.3347 92.2429 48.4731 90.9286 49.7874L57.739 82.9773C57.1027 83.6136 56.256 83.9638 55.3555 83.9638C54.455 83.9638 53.6082 83.6136 52.9717 82.9773L37.0732 67.0794C35.759 65.7651 35.759 63.6266 37.0727 62.3129C37.7092 61.6766 38.556 61.3259 39.4567 61.3259C40.3575 61.3259 41.2037 61.6761 41.84 62.3124L53.4512 73.9239C53.9565 74.4286 54.641 74.7124 55.3552 74.7124C56.0695 74.7124 56.754 74.4289 57.2587 73.9239L86.1619 45.0209Z" fill="#009A14"/>
</g>
<defs>
<clipPath id="clip0_2_236">
<rect width="128" height="128" fill="white"/>
</clipPath>
</defs>
</svg>
