<svg width="100px" height="80px" viewBox="0 0 114 114" fill="none" xmlns="http://www.w3.org/2000/svg">
<g clip-path="url(#clip0_2_267)">
<path d="M112.1 3.57129H100.701C99.6521 3.57129 98.8015 4.42195 98.8015 5.47114V9.27083H96.9304L83.9821 3.72528C83.7483 3.62417 83.496 3.57129 83.2418 3.57129H63.2554C59.7303 3.57686 56.3508 4.97855 53.8563 7.46932L38.3858 22.9176C35.8764 25.3592 35.3885 29.2118 37.2104 32.2017C37.5063 32.6377 37.8449 33.043 38.2225 33.4104C36.8384 35.9067 36.1111 38.7138 36.1065 41.5682C36.0889 48.9042 40.7531 55.434 47.6985 57.7967C54.6439 60.1585 62.3222 57.8273 66.7814 52.0026C71.2407 46.1778 71.4884 38.1572 67.3946 32.069H72.1127C73.4708 36.6284 79.5803 39.6684 85.1315 39.6684C90.6835 39.6684 96.7931 36.6284 98.153 32.069H98.8015V35.8687C98.8015 36.9179 99.6521 37.7685 100.701 37.7685H112.1C113.15 37.7685 114 36.9179 114 35.8687V5.47114C114 4.42195 113.15 3.57129 112.1 3.57129ZM66.5041 41.5682C66.5041 48.9125 60.5494 54.8672 53.2051 54.8672C45.8599 54.8672 39.9062 48.9125 39.9062 41.5682C39.8978 38.8678 40.7244 36.2314 42.2717 34.018C44.6725 30.5198 48.603 28.3825 52.8443 28.2693H53.2051C53.4426 28.2693 53.6745 28.2999 53.912 28.3111C55.2404 30.6571 57.7377 32.0959 60.4334 32.069H62.4836C65.0504 34.5635 66.4994 37.9893 66.5041 41.5682ZM96.5305 28.2693C95.4814 28.2693 94.6307 29.12 94.6307 30.1692C94.6307 33.0458 89.9275 35.8687 85.1315 35.8687C80.3364 35.8687 75.6322 33.0458 75.6322 30.1692C75.6322 29.12 74.7825 28.2693 73.7324 28.2693H60.4334C58.3379 28.2628 56.6402 26.5652 56.6337 24.4696C56.6337 22.3712 58.3351 20.6699 60.4334 20.6699H81.3318V16.8702H60.4334C56.2367 16.8702 52.8341 20.2729 52.8341 24.4696H52.8025C48.0714 24.5856 43.6001 26.658 40.4535 30.1914C40.4377 30.171 40.4192 30.1562 40.4034 30.133C39.5676 28.6469 39.845 26.7832 41.0778 25.606L56.5484 10.1521C58.3277 8.37378 60.7396 7.37377 63.2554 7.37098H82.8522L95.7921 12.9165C96.0287 13.0186 96.2829 13.0705 96.5407 13.0705H98.8015V28.2693H96.5305ZM110.201 33.9688H102.601V7.37098H110.201V33.9688Z" fill="#009A14"/>
<path d="M51.305 35.8685H55.1047C56.1539 35.8685 57.0046 36.7192 57.0046 37.7683H60.8042C60.8042 34.6208 58.2523 32.0688 55.1047 32.0688V30.1689H51.305V32.0688C48.1575 32.0688 45.6055 34.6208 45.6055 37.7683C45.6055 40.9159 48.1575 43.4679 51.305 43.4679H55.1047C56.1539 43.4679 57.0046 44.3185 57.0046 45.3677C57.0046 46.4169 56.1539 47.2676 55.1047 47.2676H51.305C50.2558 47.2676 49.4052 46.4169 49.4052 45.3677H45.6055C45.6055 48.5153 48.1575 51.0673 51.305 51.0673V52.9671H55.1047V51.0673C58.2523 51.0673 60.8042 48.5153 60.8042 45.3677C60.8042 42.2202 58.2523 39.6682 55.1047 39.6682H51.305C50.2558 39.6682 49.4052 38.8175 49.4052 37.7683C49.4052 36.7192 50.2558 35.8685 51.305 35.8685Z" fill="#009A14"/>
<path d="M94.5534 72.2337C92.7296 71.3747 90.6378 71.2819 88.7453 71.9767L76.9019 76.2875C75.8147 74.1734 73.8044 72.6873 71.464 72.2699L45.6435 67.7095C45.316 67.6501 44.9783 67.6798 44.6666 67.7957L32.2573 72.3116L31.607 70.5259C31.2499 69.5388 30.1599 69.0277 29.1738 69.3858L14.8906 74.5964C13.9036 74.9536 13.3934 76.0436 13.7505 77.0306L1.25308 81.5901C0.266053 81.9472 -0.24416 83.0372 0.112989 84.0242L9.22168 109.013C9.49442 109.763 10.2069 110.262 11.0056 110.263C11.2264 110.265 11.4471 110.228 11.6549 110.153L24.1524 105.593C24.324 106.067 24.6765 106.454 25.1338 106.667C25.5902 106.882 26.1134 106.905 26.5875 106.732L40.8688 101.533C41.8558 101.176 42.366 100.086 42.0089 99.0987L41.3595 97.313L42.5182 96.8918L53.4117 100.572C53.8217 100.708 54.2651 100.703 54.6715 100.556L60.025 98.6071L93.9467 86.258C96.8327 85.2051 98.8002 82.5186 98.9338 79.449C99.0674 76.3803 97.3401 73.5333 94.5571 72.2337H94.5534ZM22.8527 102.025L12.141 105.924L4.34405 84.5048L15.0557 80.6002L22.8527 102.025ZM27.0745 102.512L17.976 77.5167L28.697 73.6187L37.7955 98.6108L27.0745 102.512ZM92.6434 82.6903L53.9933 96.7489L43.0998 93.0689C42.6907 92.9307 42.2473 92.9363 41.8419 93.0838L40.0562 93.7341L33.5579 75.8757L45.4876 71.5342L70.8053 75.999C72.1514 76.2282 73.2683 77.1688 73.7228 78.4573C73.7905 78.6763 73.8443 78.8989 73.8842 79.1243C73.9696 79.5492 73.9751 79.9852 73.9 80.4119C73.5308 82.4788 71.5623 83.86 69.4936 83.5029L48.0981 79.7301L47.4385 83.4732L68.8294 87.2441C72.9696 87.9622 76.9093 85.1931 77.6366 81.0548C77.6858 80.7162 77.7127 80.3757 77.7164 80.0344L90.045 75.5463C92.0172 74.8293 94.1981 75.846 94.9161 77.8191C95.6332 79.7913 94.6165 81.9723 92.6434 82.6903Z" fill="#009A14"/>
</g>
<defs>
<clipPath id="clip0_2_267">
<rect width="114" height="114" fill="white"/>
</clipPath>
</defs>
</svg>
