<svg width="24" height="24" viewBox="0 0 24 24" fill="none" xmlns="http://www.w3.org/2000/svg">
<circle cx="12" cy="12" r="12" fill="#CCF2D0" fill-opacity="0.5"/>
<path d="M7.33333 10.6665C6.6 10.6665 6 11.2665 6 11.9998C6 12.7332 6.6 13.3332 7.33333 13.3332C8.06667 13.3332 8.66667 12.7332 8.66667 11.9998C8.66667 11.2665 8.06667 10.6665 7.33333 10.6665Z" fill="#00BD13"/>
<path d="M16.6663 10.6665C15.933 10.6665 15.333 11.2665 15.333 11.9998C15.333 12.7332 15.933 13.3332 16.6663 13.3332C17.3997 13.3332 17.9997 12.7332 17.9997 11.9998C17.9997 11.2665 17.3997 10.6665 16.6663 10.6665Z" fill="#00BD13"/>
<path d="M12.0003 10.6665C11.267 10.6665 10.667 11.2665 10.667 11.9998C10.667 12.7332 11.267 13.3332 12.0003 13.3332C12.7337 13.3332 13.3337 12.7332 13.3337 11.9998C13.3337 11.2665 12.7337 10.6665 12.0003 10.6665Z" fill="#00BD13"/>
</svg>
