<svg width="40" height="40" viewBox="0 0 40 40" fill="none" xmlns="http://www.w3.org/2000/svg">
<circle cx="20" cy="20" r="20" fill="#111827"/>
<path opacity="0.4" d="M18.9594 12.0426C19.5344 11.5509 20.476 11.5509 21.0594 12.0426L22.376 13.1759C22.626 13.3926 23.0927 13.5676 23.426 13.5676H24.8427C25.726 13.5676 26.451 14.2926 26.451 15.1759V16.5926C26.451 16.9176 26.626 17.3926 26.8427 17.6426L27.976 18.9592C28.4677 19.5342 28.4677 20.4759 27.976 21.0592L26.8427 22.3759C26.626 22.6259 26.451 23.0926 26.451 23.4259V24.8426C26.451 25.7259 25.726 26.4509 24.8427 26.4509H23.426C23.101 26.4509 22.626 26.6259 22.376 26.8426L21.0594 27.9759C20.4844 28.4676 19.5427 28.4676 18.9594 27.9759L17.6427 26.8426C17.3927 26.6259 16.926 26.4509 16.5927 26.4509H15.151C14.2677 26.4509 13.5427 25.7259 13.5427 24.8426V23.4176C13.5427 23.0926 13.3677 22.6259 13.1594 22.3759L12.0344 21.0509C11.551 20.4759 11.551 19.5426 12.0344 18.9676L13.1594 17.6426C13.3677 17.3926 13.5427 16.9259 13.5427 16.6009V15.1676C13.5427 14.2842 14.2677 13.5592 15.151 13.5592H16.5927C16.9177 13.5592 17.3927 13.3842 17.6427 13.1676L18.9594 12.0426Z" fill="#ECE72A"/>
<path d="M18.9911 22.6421C18.8245 22.6421 18.6661 22.5754 18.5495 22.4587L16.5328 20.4421C16.2911 20.2004 16.2911 19.8004 16.5328 19.5587C16.7745 19.3171 17.1745 19.3171 17.4161 19.5587L18.9911 21.1337L22.5745 17.5504C22.8161 17.3087 23.2161 17.3087 23.4578 17.5504C23.6995 17.7921 23.6995 18.1921 23.4578 18.4337L19.4328 22.4587C19.3161 22.5754 19.1578 22.6421 18.9911 22.6421Z" fill="#ECE72A"/>
</svg>
