<svg width="40" height="40" viewBox="0 0 40 40" fill="none" xmlns="http://www.w3.org/2000/svg">
<circle cx="20" cy="20" r="20" fill="#111827"/>
<path d="M27.5739 15.8163C26.8656 15.0329 25.6822 14.6413 23.9656 14.6413H23.7656V14.6079C23.7656 13.2079 23.7656 11.4746 20.6322 11.4746H19.3656C16.2322 11.4746 16.2322 13.2163 16.2322 14.6079V14.6496H16.0322C14.3072 14.6496 13.1322 15.0413 12.4239 15.8246C11.5989 16.7413 11.6239 17.9746 11.7072 18.8163L11.7156 18.8746L11.7989 19.7496C11.8072 19.7579 11.8239 19.7746 11.8406 19.7829C12.1156 19.9663 12.3989 20.1496 12.6989 20.3163C12.8156 20.3913 12.9406 20.4579 13.0656 20.5246C14.4906 21.3079 16.0572 21.8329 17.6489 22.0913C17.7239 22.8746 18.0656 23.7913 19.8906 23.7913C21.7156 23.7913 22.0739 22.8829 22.1322 22.0746C23.8322 21.7996 25.4739 21.2079 26.9572 20.3413C27.0072 20.3163 27.0406 20.2913 27.0822 20.2663C27.4656 20.0496 27.8239 19.8163 28.1739 19.5579C28.1906 19.5496 28.2072 19.5329 28.2156 19.5163L28.2489 19.2163L28.2906 18.8246C28.2989 18.7746 28.2989 18.7329 28.3072 18.6746C28.3739 17.8329 28.3572 16.6829 27.5739 15.8163ZM20.9072 21.5246C20.9072 22.4079 20.9072 22.5413 19.8822 22.5413C18.8572 22.5413 18.8572 22.3829 18.8572 21.5329V20.4829H20.9072V21.5246ZM17.4239 14.6413V14.6079C17.4239 13.1913 17.4239 12.6663 19.3656 12.6663H20.6322C22.5739 12.6663 22.5739 13.1996 22.5739 14.6079V14.6496H17.4239V14.6413Z" fill="#ECE72A"/>
<path opacity="0.4" d="M27.0841 20.25C27.0424 20.275 27.0008 20.3 26.9591 20.325C25.4758 21.1917 23.8341 21.775 22.1341 22.0583C22.0674 22.8583 21.7174 23.775 19.8924 23.775C18.0674 23.775 17.7174 22.8667 17.6508 22.075C16.0591 21.825 14.4924 21.3 13.0674 20.5083C12.9424 20.4417 12.8174 20.375 12.7008 20.3C12.4008 20.1333 12.1174 19.95 11.8424 19.7667C11.8258 19.7583 11.8091 19.7417 11.8008 19.7333L12.3091 25.1583C12.4841 26.8167 13.1674 28.525 16.8341 28.525H23.1841C26.8508 28.525 27.5341 26.8167 27.7091 25.15L28.2341 19.5C28.2258 19.5167 28.2091 19.5333 28.1924 19.5417C27.8341 19.8 27.4674 20.0417 27.0841 20.25Z" fill="#ECE72A"/>
</svg>
