<svg width="40" height="40" viewBox="0 0 40 40" fill="none" xmlns="http://www.w3.org/2000/svg">
<circle cx="20" cy="20" r="20" fill="#111827"/>
<path d="M28.0565 15.7925C27.5232 13.9841 26.0148 12.4758 24.2065 11.9425C22.8315 11.5425 21.8815 11.5758 21.2232 12.0675C20.4315 12.6591 20.3398 13.7258 20.3398 14.4841V16.5591C20.3398 18.6091 21.2732 19.6508 23.1065 19.6508H25.4982C26.2482 19.6508 27.3232 19.5591 27.9148 18.7675C28.4232 18.1175 28.4648 17.1675 28.0565 15.7925Z" fill="#ECE72A"/>
<path opacity="0.4" d="M25.7575 21.133C25.5408 20.883 25.2242 20.7413 24.8992 20.7413H21.9158C20.4492 20.7413 19.2575 19.5496 19.2575 18.083V15.0996C19.2575 14.7746 19.1158 14.458 18.8658 14.2413C18.6242 14.0246 18.2908 13.9246 17.9742 13.9663C16.0158 14.2163 14.2158 15.2913 13.0408 16.908C11.8575 18.533 11.4242 20.5163 11.7992 22.4996C12.3408 25.3663 14.6325 27.658 17.5075 28.1996C17.9658 28.2913 18.4242 28.333 18.8825 28.333C20.3908 28.333 21.8492 27.8663 23.0908 26.958C24.7075 25.783 25.7825 23.983 26.0325 22.0246C26.0742 21.6996 25.9742 21.3746 25.7575 21.133Z" fill="#ECE72A"/>
</svg>
