<svg width="40" height="40" viewBox="0 0 40 40" fill="none" xmlns="http://www.w3.org/2000/svg">
<circle cx="20" cy="20" r="20" fill="#111827"/>
<path opacity="0.4" d="M20.0013 28.3327C24.6037 28.3327 28.3346 24.6017 28.3346 19.9993C28.3346 15.397 24.6037 11.666 20.0013 11.666C15.3989 11.666 11.668 15.397 11.668 19.9993C11.668 24.6017 15.3989 28.3327 20.0013 28.3327Z" fill="#ECE72A"/>
<path d="M20.0013 26.4577C16.443 26.4577 13.543 23.5577 13.543 19.9993C13.543 19.6577 13.8263 19.3743 14.168 19.3743C14.5096 19.3743 14.793 19.6577 14.793 19.9993C14.793 22.8743 17.1263 25.2077 20.0013 25.2077C22.8763 25.2077 25.2096 22.8743 25.2096 19.9993C25.2096 17.1243 22.8763 14.791 20.0013 14.791C19.6596 14.791 19.3763 14.5077 19.3763 14.166C19.3763 13.8243 19.6596 13.541 20.0013 13.541C23.5596 13.541 26.4596 16.441 26.4596 19.9993C26.4596 23.5577 23.5596 26.4577 20.0013 26.4577Z" fill="#ECE72A"/>
<path d="M20 23.9577C19.6583 23.9577 19.375 23.6743 19.375 23.3327C19.375 22.991 19.6583 22.7077 20 22.7077C21.4917 22.7077 22.7083 21.491 22.7083 19.9993C22.7083 18.5077 21.4917 17.291 20 17.291C19.6583 17.291 19.375 17.0077 19.375 16.666C19.375 16.3243 19.6583 16.041 20 16.041C22.1833 16.041 23.9583 17.816 23.9583 19.9993C23.9583 22.1827 22.1833 23.9577 20 23.9577Z" fill="#ECE72A"/>
</svg>
