<svg width="40" height="40" viewBox="0 0 40 40" fill="none" xmlns="http://www.w3.org/2000/svg">
<circle cx="20" cy="20" r="20" fill="#111827"/>
<path opacity="0.4" d="M26.0086 15.2993C25.1419 13.5493 23.4669 12.2576 21.5253 11.8326C19.4919 11.3826 17.4086 11.8659 15.8169 13.1493C14.2169 14.4243 13.3086 16.3326 13.3086 18.3743C13.3086 20.5326 14.6003 22.7909 16.5503 24.0993V24.7909C16.5419 25.0243 16.5336 25.3826 16.8169 25.6743C17.1086 25.9743 17.5419 26.0076 17.8836 26.0076H22.1586C22.6086 26.0076 22.9503 25.8826 23.1836 25.6493C23.5003 25.3243 23.4919 24.9076 23.4836 24.6826V24.0993C26.0669 22.3576 27.6919 18.6826 26.0086 15.2993Z" fill="#ECE72A"/>
<path d="M22.7179 28.3346C22.6679 28.3346 22.6096 28.3263 22.5596 28.3096C20.8846 27.8346 19.1263 27.8346 17.4513 28.3096C17.1429 28.393 16.8179 28.218 16.7346 27.9096C16.6429 27.6013 16.8263 27.2763 17.1346 27.193C19.0179 26.6596 21.0013 26.6596 22.8846 27.193C23.1929 27.2846 23.3763 27.6013 23.2846 27.9096C23.2013 28.168 22.9679 28.3346 22.7179 28.3346Z" fill="#ECE72A"/>
<path d="M20.0003 21.5417C19.892 21.5417 19.7836 21.5167 19.692 21.4584C19.392 21.2834 19.292 20.9001 19.4586 20.6084L20.167 19.3751H19.467C19.0503 19.3751 18.7086 19.1917 18.5253 18.8834C18.342 18.5667 18.3586 18.1834 18.567 17.8167L19.4586 16.2667C19.6336 15.9667 20.017 15.8667 20.3086 16.0334C20.6086 16.2084 20.7086 16.5917 20.542 16.8834L19.8336 18.1251H20.5336C20.9503 18.1251 21.292 18.3084 21.4753 18.6167C21.6586 18.9334 21.642 19.3167 21.4336 19.6834L20.542 21.2334C20.4253 21.4334 20.217 21.5417 20.0003 21.5417Z" fill="#ECE72A"/>
</svg>
