<svg width="32" height="32" viewBox="0 0 32 32" fill="none" xmlns="http://www.w3.org/2000/svg">
<path d="M11.6684 5.88889H8.77951C7.18402 5.88889 5.89062 7.18229 5.89062 8.77778V26.1111C5.89062 27.7066 7.18402 29 8.77951 29H23.224C24.8194 29 26.1128 27.7066 26.1128 26.1111V8.77778C26.1128 7.18229 24.8194 5.88889 23.224 5.88889H20.3351M11.6684 5.88889C11.6684 7.48438 12.9618 8.77778 14.5573 8.77778H17.4462C19.0417 8.77778 20.3351 7.48438 20.3351 5.88889M11.6684 5.88889C11.6684 4.2934 12.9618 3 14.5573 3H17.4462C19.0417 3 20.3351 4.2934 20.3351 5.88889" stroke="white" stroke-width="2.67" stroke-linecap="round"/>
<g clip-path="url(#clip0_1305_17673)">
<path d="M11.125 14.125V17.1719H11.4794M20.8373 18.3906C20.5374 15.9858 18.486 14.125 16 14.125C13.9541 14.125 12.2026 15.3853 11.4794 17.1719M11.4794 17.1719H14.1719M20.875 23.875V20.8281H20.5206M20.5206 20.8281C19.7974 22.6147 18.0459 23.875 16 23.875C13.514 23.875 11.4626 22.0142 11.1627 19.6094M20.5206 20.8281H17.8281" stroke="white" stroke-width="2" stroke-linecap="round" stroke-linejoin="round"/>
</g>
<defs>
<clipPath id="clip0_1305_17673">
<rect width="12" height="12" fill="white" transform="translate(10 13)"/>
</clipPath>
</defs>
</svg>
