<svg width="24" height="24" viewBox="0 0 24 24" fill="none" xmlns="http://www.w3.org/2000/svg">
<path d="M12.4997 22.7507H4.07973C2.50973 22.7507 1.21973 21.4907 1.21973 19.9307V5.09068C1.21973 3.56068 1.78973 2.37068 2.82973 1.72068C3.87973 1.06068 5.23973 1.08068 6.64973 1.78068L11.0897 3.96068C12.2997 4.56068 13.2497 6.07068 13.2497 7.41068V22.0007C13.2497 22.4107 12.9097 22.7507 12.4997 22.7507ZM4.55973 2.75068C4.20973 2.75068 3.88973 2.83068 3.61973 3.00068C3.03973 3.36068 2.71973 4.11068 2.71973 5.09068V19.9307C2.71973 20.6607 3.32973 21.2507 4.07973 21.2507H11.7497V7.41068C11.7497 6.64068 11.1297 5.65068 10.4197 5.31068L5.97973 3.13068C5.46973 2.88068 4.98973 2.75068 4.55973 2.75068Z" fill="white"/>
<path d="M18.81 22.7493H12.5C12.09 22.7493 11.75 22.4093 11.75 21.9993V10.4193C11.75 10.1893 11.85 9.97929 12.03 9.83929C12.21 9.69929 12.43 9.63929 12.66 9.68929L13.13 9.78929L19.67 11.2493C21.66 11.6893 22.66 12.8593 22.72 14.8493C22.73 14.8493 22.73 14.9493 22.73 15.0593V18.8393C22.72 21.3993 21.37 22.7493 18.81 22.7493ZM13.25 21.2493H18.81C20.57 21.2493 21.22 20.5993 21.22 18.8393V14.9793C21.17 13.6093 20.65 12.9993 19.34 12.7093L13.25 11.3493V21.2493Z" fill="white"/>
<path d="M8.97 9.75H5.5C5.09 9.75 4.75 9.41 4.75 9C4.75 8.59 5.09 8.25 5.5 8.25H8.97C9.38 8.25 9.72 8.59 9.72 9C9.72 9.41 9.39 9.75 8.97 9.75Z" fill="white"/>
<path d="M8.97 13.75H5.5C5.09 13.75 4.75 13.41 4.75 13C4.75 12.59 5.09 12.25 5.5 12.25H8.97C9.38 12.25 9.72 12.59 9.72 13C9.72 13.41 9.39 13.75 8.97 13.75Z" fill="white"/>
<path d="M15.2197 17.7505C13.5697 17.7505 12.2197 16.4005 12.2197 14.7505V10.5205C12.2197 10.2905 12.3197 10.0805 12.4997 9.93047C12.6797 9.78047 12.9097 9.73047 13.1297 9.78047L17.6297 10.7905C17.9697 10.8705 18.2197 11.1705 18.2197 11.5205V14.7405C18.2197 16.4005 16.8797 17.7505 15.2197 17.7505ZM13.7197 11.4605V14.7505C13.7197 15.5805 14.3897 16.2505 15.2197 16.2505C16.0497 16.2505 16.7197 15.5805 16.7197 14.7505V12.1305L13.7197 11.4605Z" fill="white"/>
<path d="M19.7197 17.7506C18.0697 17.7506 16.7197 16.4006 16.7197 14.7506V11.5306C16.7197 11.3006 16.8197 11.0906 16.9997 10.9506C17.1797 10.8106 17.4097 10.7506 17.6297 10.8006L19.6597 11.2506C21.6497 11.6906 22.6497 12.8606 22.7097 14.8506C22.7097 14.8706 22.7097 14.8906 22.7097 14.9106C22.6297 16.5006 21.3197 17.7506 19.7197 17.7506ZM18.2197 12.4606V14.7506C18.2197 15.5806 18.8897 16.2506 19.7197 16.2506C20.5097 16.2506 21.1597 15.6406 21.2097 14.8606C21.1597 13.6006 20.6397 13.0006 19.3397 12.7106L18.2197 12.4606Z" fill="white"/>
</svg>
