<svg width="24" height="24" viewBox="0 0 24 24" fill="none" xmlns="http://www.w3.org/2000/svg">
<path d="M23 22.75H1C0.59 22.75 0.25 22.41 0.25 22C0.25 21.59 0.59 21.25 1 21.25H23C23.41 21.25 23.75 21.59 23.75 22C23.75 22.41 23.41 22.75 23 22.75Z" fill="white"/>
<path d="M19.7812 22.7598C19.3713 22.7598 19.0312 22.4198 19.0312 22.0098V17.5498C19.0312 17.1398 19.3713 16.7998 19.7812 16.7998C20.1912 16.7998 20.5312 17.1398 20.5312 17.5498V22.0098C20.5312 22.4198 20.2012 22.7598 19.7812 22.7598Z" fill="white"/>
<path d="M19.8016 18.2999C18.1716 18.2999 16.8516 16.9799 16.8516 15.3499V13.0799C16.8516 11.4499 18.1716 10.1299 19.8016 10.1299C21.4316 10.1299 22.7516 11.4499 22.7516 13.0799V15.3499C22.7516 16.9799 21.4316 18.2999 19.8016 18.2999ZM19.8016 11.6399C19.0016 11.6399 18.3516 12.2899 18.3516 13.0899V15.3599C18.3516 16.1599 19.0016 16.8099 19.8016 16.8099C20.6016 16.8099 21.2516 16.1599 21.2516 15.3599V13.0899C21.2516 12.2899 20.6016 11.6399 19.8016 11.6399Z" fill="white"/>
<path d="M14.2998 22.7498C13.8898 22.7498 13.5498 22.4098 13.5498 21.9998V6.02979C13.5498 4.43979 12.8798 3.75977 11.3198 3.75977H5.08984C3.51984 3.75977 2.83984 4.43979 2.83984 6.02979V21.9998C2.83984 22.4098 2.49984 22.7498 2.08984 22.7498C1.67984 22.7498 1.33984 22.4098 1.33984 21.9998V6.02979C1.33984 3.59979 2.66984 2.25977 5.08984 2.25977H11.3198C13.7298 2.25977 15.0498 3.59979 15.0498 6.02979V21.9998C15.0498 22.4098 14.7098 22.7498 14.2998 22.7498Z" fill="white"/>
<path d="M10.7508 9H5.80078C5.39078 9 5.05078 8.66 5.05078 8.25C5.05078 7.84 5.39078 7.5 5.80078 7.5H10.7508C11.1608 7.5 11.5008 7.84 11.5008 8.25C11.5008 8.66 11.1608 9 10.7508 9Z" fill="white"/>
<path d="M10.7508 12.75H5.80078C5.39078 12.75 5.05078 12.41 5.05078 12C5.05078 11.59 5.39078 11.25 5.80078 11.25H10.7508C11.1608 11.25 11.5008 11.59 11.5008 12C11.5008 12.41 11.1608 12.75 10.7508 12.75Z" fill="white"/>
<path d="M8.25 22.75C7.84 22.75 7.5 22.41 7.5 22V18.25C7.5 17.84 7.84 17.5 8.25 17.5C8.66 17.5 9 17.84 9 18.25V22C9 22.41 8.66 22.75 8.25 22.75Z" fill="white"/>
</svg>
