<svg width="32" height="32" viewBox="0 0 32 32" fill="none" xmlns="http://www.w3.org/2000/svg">
<path d="M3 4.625C3 3.72754 3.72754 3 4.625 3H27.375C28.2725 3 29 3.72754 29 4.625V7.875C29 8.77246 28.2725 9.5 27.375 9.5H4.625C3.72754 9.5 3 8.77246 3 7.875V4.625Z" stroke="white" stroke-width="2.67" stroke-linecap="round" stroke-linejoin="round"/>
<path d="M3 17.625C3 16.7275 3.72754 16 4.625 16H14.375C15.2725 16 16 16.7275 16 17.625V27.375C16 28.2725 15.2725 29 14.375 29H4.625C3.72754 29 3 28.2725 3 27.375V17.625Z" stroke="white" stroke-width="2.67" stroke-linecap="round" stroke-linejoin="round"/>
<path d="M22.5 17.625C22.5 16.7275 23.2275 16 24.125 16H27.375C28.2725 16 29 16.7275 29 17.625V27.375C29 28.2725 28.2725 29 27.375 29H24.125C23.2275 29 22.5 28.2725 22.5 27.375V17.625Z" stroke="white" stroke-width="2.67" stroke-linecap="round" stroke-linejoin="round"/>
</svg>
