<svg width="33" height="33" viewBox="0 0 33 33" fill="none" xmlns="http://www.w3.org/2000/svg">
<path d="M18.085 15.3114C18.085 14.5741 17.4873 13.9764 16.75 13.9764C16.0127 13.9764 15.415 14.5741 15.415 15.3114H18.085ZM28.3876 27.0311L29.5817 26.434L28.3876 27.0311ZM28.9151 28.3672L30.2488 28.425L28.9151 28.3672ZM26.7761 29.095L26.4865 30.3982L26.7761 29.095ZM28.2003 29.2826L28.5798 30.5625L28.2003 29.2826ZM15.4531 6.3497L14.259 5.75267L15.4531 6.3497ZM16.178 5.17167L15.4144 4.07662L15.4144 4.07662L16.178 5.17167ZM17.322 5.17167L18.0856 4.07662L17.322 5.17167ZM4.58495 28.3672L5.9187 28.3094L4.58495 28.3672ZM6.72387 29.095L7.01347 30.3982L6.72387 29.095ZM5.2997 29.2826L4.92016 30.5625L5.2997 29.2826ZM6.30646 27.6281L16.6471 6.94673L14.259 5.75267L3.91833 26.434L6.30646 27.6281ZM16.8529 6.94673L27.1935 27.6281L29.5817 26.434L19.241 5.75267L16.8529 6.94673ZM27.0657 27.7918L17.0396 25.5638L16.4604 28.1702L26.4865 30.3982L27.0657 27.7918ZM16.4604 25.5638L6.43426 27.7918L7.01347 30.3982L17.0396 28.1702L16.4604 25.5638ZM18.085 26.867V15.3114H15.415V26.867H18.085ZM27.1935 27.6281C27.382 28.0049 27.4915 28.2258 27.5581 28.3853C27.589 28.4594 27.5958 28.4862 27.5948 28.4822C27.5933 28.4763 27.5769 28.4116 27.5813 28.3094L30.2488 28.425C30.2678 27.9859 30.1243 27.602 30.0223 27.3575C29.9121 27.0932 29.7523 26.7754 29.5817 26.434L27.1935 27.6281ZM26.4865 30.3982C26.8591 30.481 27.2062 30.5589 27.4893 30.6017C27.7512 30.6414 28.1585 30.6875 28.5798 30.5625L27.8207 28.0027C27.9189 27.9736 27.9856 27.9739 27.9917 27.9739C27.9957 27.9739 27.9681 27.9738 27.8887 27.9618C27.7179 27.9359 27.477 27.8832 27.0657 27.7918L26.4865 30.3982ZM27.5813 28.3094C27.5875 28.1666 27.6837 28.0434 27.8207 28.0027L28.5798 30.5625C29.5353 30.2792 30.2057 29.4207 30.2488 28.425L27.5813 28.3094ZM16.6471 6.94673C16.8281 6.58483 16.9333 6.37603 17.0165 6.23489C17.0549 6.16975 17.0706 6.15051 17.067 6.15497C17.062 6.16128 17.0215 6.21099 16.9416 6.26671L15.4144 4.07662C15.0632 4.32152 14.8484 4.65497 14.7162 4.87935C14.5751 5.11876 14.4222 5.42622 14.259 5.75267L16.6471 6.94673ZM19.241 5.75267C19.0778 5.42622 18.9249 5.11876 18.7838 4.87935C18.6516 4.65496 18.4368 4.32152 18.0856 4.07662L16.5584 6.26671C16.4785 6.21099 16.438 6.16128 16.433 6.15497C16.4294 6.15051 16.4451 6.16975 16.4835 6.23489C16.5667 6.37603 16.6719 6.58483 16.8529 6.94673L19.241 5.75267ZM16.9416 6.26671C16.8265 6.347 16.6735 6.347 16.5584 6.26671L18.0856 4.07662C17.2831 3.51703 16.2169 3.51703 15.4144 4.07662L16.9416 6.26671ZM3.91833 26.434C3.74765 26.7754 3.5879 27.0932 3.47766 27.3575C3.37571 27.602 3.23217 27.9859 3.2512 28.425L5.9187 28.3094C5.92313 28.4116 5.90671 28.4763 5.9052 28.4822C5.90418 28.4862 5.91103 28.4594 5.94194 28.3853C6.00846 28.2258 6.11803 28.0049 6.30646 27.6281L3.91833 26.434ZM6.43426 27.7918C6.02297 27.8832 5.78215 27.9359 5.61128 27.9618C5.53187 27.9738 5.50426 27.9739 5.50834 27.9739C5.51442 27.9739 5.58113 27.9736 5.67925 28.0027L4.92016 30.5625C5.34153 30.6875 5.74876 30.6414 6.01065 30.6017C6.29381 30.5589 6.6409 30.481 7.01347 30.3982L6.43426 27.7918ZM3.2512 28.425C3.29434 29.4207 3.96467 30.2792 4.92016 30.5625L5.67925 28.0027C5.81633 28.0434 5.91251 28.1666 5.9187 28.3094L3.2512 28.425Z" fill="white"/>
</svg>
