<svg width="32" height="32" viewBox="0 0 32 32" fill="none" xmlns="http://www.w3.org/2000/svg">
<path d="M22.5 26.3996H29V23.7996C29 21.6457 27.2539 19.8996 25.1 19.8996C23.8577 19.8996 22.7511 20.4804 22.0369 21.3854M22.5 26.3996H9.5M22.5 26.3996V23.7996C22.5 22.9465 22.3356 22.1318 22.0369 21.3854M9.5 26.3996H3V23.7996C3 21.6457 4.74609 19.8996 6.9 19.8996C8.14229 19.8996 9.24892 20.4804 9.96312 21.3854M9.5 26.3996V23.7996C9.5 22.9465 9.66435 22.1318 9.96312 21.3854M9.96312 21.3854C10.9216 18.9909 13.2633 17.2996 16 17.2996C18.7367 17.2996 21.0784 18.9909 22.0369 21.3854M19.9 9.49961C19.9 11.6535 18.1539 13.3996 16 13.3996C13.8461 13.3996 12.1 11.6535 12.1 9.49961C12.1 7.3457 13.8461 5.59961 16 5.59961C18.1539 5.59961 19.9 7.3457 19.9 9.49961ZM27.7 13.3996C27.7 14.8356 26.5359 15.9996 25.1 15.9996C23.6641 15.9996 22.5 14.8356 22.5 13.3996C22.5 11.9637 23.6641 10.7996 25.1 10.7996C26.5359 10.7996 27.7 11.9637 27.7 13.3996ZM9.5 13.3996C9.5 14.8356 8.33594 15.9996 6.9 15.9996C5.46406 15.9996 4.3 14.8356 4.3 13.3996C4.3 11.9637 5.46406 10.7996 6.9 10.7996C8.33594 10.7996 9.5 11.9637 9.5 13.3996Z" stroke="white" stroke-width="2.67" stroke-linecap="round" stroke-linejoin="round"/>
</svg>
