<svg width="24" height="24" viewBox="0 0 24 24" fill="none" xmlns="http://www.w3.org/2000/svg">
<path d="M22.24 12.77L22.24 12.7713C22.245 14.7492 21.9388 15.8646 21.2921 16.5132C20.6456 17.1618 19.5329 17.47 17.56 17.47H6.44C4.46728 17.47 3.35398 17.1619 2.70605 16.5139C2.05813 15.866 1.75 14.7527 1.75 12.78V6.44C1.75 4.46728 2.05813 3.35398 2.70605 2.70605C3.35398 2.05813 4.46728 1.75 6.44 1.75H17.55C19.5227 1.75 20.636 2.05813 21.2839 2.70605C21.9319 3.35398 22.24 4.46728 22.24 6.44L22.24 12.77ZM6.44 2.25C5.64772 2.25 4.98321 2.284 4.43878 2.3951C3.88894 2.50729 3.42207 2.70582 3.06395 3.06395C2.70582 3.42207 2.50729 3.88894 2.3951 4.43878C2.284 4.98321 2.25 5.64772 2.25 6.44V12.77C2.25 13.5623 2.284 14.2268 2.3951 14.7712C2.50729 15.3211 2.70582 15.7879 3.06395 16.1461C3.42207 16.5042 3.88894 16.7027 4.43878 16.8149C4.98321 16.926 5.64772 16.96 6.44 16.96H17.55C18.3423 16.96 19.0068 16.926 19.5512 16.8149C20.1011 16.7027 20.5679 16.5042 20.9261 16.1461C21.2842 15.7879 21.4827 15.3211 21.5949 14.7712C21.706 14.2268 21.74 13.5623 21.74 12.77V6.44C21.74 5.64772 21.706 4.98321 21.5949 4.43878C21.4827 3.88894 21.2842 3.42207 20.9261 3.06395C20.5679 2.70582 20.1011 2.50729 19.5512 2.3951C19.0068 2.284 18.3423 2.25 17.55 2.25H6.44Z" stroke="white"/>
<path d="M12 22.2488C11.8661 22.2488 11.75 22.1326 11.75 21.9988V17.2188C11.75 17.0849 11.8661 16.9688 12 16.9688C12.1339 16.9688 12.25 17.0849 12.25 17.2188V21.9988C12.25 22.1326 12.1339 22.2488 12 22.2488Z" stroke="white"/>
<path d="M22 13.25H2C1.86614 13.25 1.75 13.1339 1.75 13C1.75 12.8661 1.86614 12.75 2 12.75H22C22.1339 12.75 22.25 12.8661 22.25 13C22.25 13.1339 22.1339 13.25 22 13.25Z" stroke="white"/>
<path d="M16.5 22.25H7.5C7.36614 22.25 7.25 22.1339 7.25 22C7.25 21.8661 7.36614 21.75 7.5 21.75H16.5C16.6339 21.75 16.75 21.8661 16.75 22C16.75 22.1339 16.6339 22.25 16.5 22.25Z" fill="#292D32" stroke="white"/>
</svg>
