<svg width="32" height="32" viewBox="0 0 32 32" fill="none" xmlns="http://www.w3.org/2000/svg">
<path d="M11.6684 5.88889H8.77951C7.18402 5.88889 5.89062 7.18229 5.89062 8.77778V26.1111C5.89062 27.7066 7.18402 29 8.77951 29H23.224C24.8194 29 26.1128 27.7066 26.1128 26.1111V8.77778C26.1128 7.18229 24.8194 5.88889 23.224 5.88889H20.3351M11.6684 5.88889C11.6684 7.48438 12.9618 8.77778 14.5573 8.77778H17.4462C19.0417 8.77778 20.3351 7.48438 20.3351 5.88889M11.6684 5.88889C11.6684 4.2934 12.9618 3 14.5573 3H17.4462C19.0417 3 20.3351 4.2934 20.3351 5.88889M16.0017 16H20.3351M16.0017 21.7778H20.3351M11.6684 16H11.6828M11.6684 21.7778H11.6828" stroke="white" stroke-width="2.67" stroke-linecap="round"/>
</svg>
