<svg width="32" height="32" viewBox="0 0 32 32" fill="none" xmlns="http://www.w3.org/2000/svg">
<path d="M13.1111 8.77767H5.88889C4.2934 8.77767 3 10.0711 3 11.6666V24.6666C3 26.262 4.2934 27.5554 5.88889 27.5554H26.1111C27.7066 27.5554 29 26.262 29 24.6666V11.6666C29 10.0711 27.7066 8.77767 26.1111 8.77767H18.8889M13.1111 8.77767V7.33322C13.1111 5.73774 14.4045 4.44434 16 4.44434C17.5955 4.44434 18.8889 5.73774 18.8889 7.33322V8.77767M13.1111 8.77767C13.1111 10.3732 14.4045 11.6666 16 11.6666C17.5955 11.6666 18.8889 10.3732 18.8889 8.77767M11.6667 20.3332C13.2622 20.3332 14.5556 19.0398 14.5556 17.4443C14.5556 15.8488 13.2622 14.5554 11.6667 14.5554C10.0712 14.5554 8.77778 15.8488 8.77778 17.4443C8.77778 19.0398 10.0712 20.3332 11.6667 20.3332ZM11.6667 20.3332C13.5534 20.3332 15.1585 21.5391 15.7534 23.2221M11.6667 20.3332C9.77991 20.3332 8.17471 21.5391 7.57983 23.2221M20.3333 15.9999H24.6667M20.3333 21.7777H23.2222" stroke="white" stroke-width="2.67" stroke-linecap="round" stroke-linejoin="round"/>
</svg>
