<svg width="24" height="24" viewBox="0 0 24 24" fill="none" xmlns="http://www.w3.org/2000/svg">
<path d="M21.8702 14.7097L21.8695 14.7126L21.4597 16.5717C20.6906 20.0327 17.9237 22.2502 14.3778 22.2502H9.61782C6.07205 22.2502 3.30521 20.0329 2.53599 16.5721C2.53596 16.572 2.53593 16.5719 2.53591 16.5717L2.12629 14.7134C2.12626 14.7132 2.12623 14.7131 2.1262 14.713C1.89859 13.6714 2.50101 12.5328 3.48476 12.134C3.485 12.1339 3.48525 12.1338 3.48549 12.1337L10.4114 9.35531C10.4118 9.35515 10.4122 9.35499 10.4127 9.35482C11.434 8.95204 12.5617 8.95204 13.583 9.35482C13.5834 9.35499 13.5838 9.35515 13.5842 9.35531L20.5115 12.1342C21.5056 12.5335 22.1054 13.6713 21.8702 14.7097ZM10.6023 9.81205L10.6022 9.81193L10.5917 9.81617L3.66365 12.5954C3.66331 12.5955 3.66297 12.5956 3.66263 12.5958C3.26683 12.7529 2.96501 13.0679 2.78203 13.4141C2.59903 13.7603 2.50958 14.1855 2.59931 14.5968L2.59954 14.5978L3.00955 16.4579L3.00969 16.4585C3.73074 19.7086 6.27468 21.7402 9.60781 21.7402H14.3678C17.7009 21.7402 20.2449 19.7086 20.966 16.4585L20.9661 16.4579L21.3761 14.5978L21.3763 14.5968C21.4661 14.1855 21.3766 13.7603 21.1936 13.4141C21.0107 13.0679 20.7089 12.753 20.3131 12.5958C20.3127 12.5957 20.3124 12.5955 20.312 12.5954L13.384 9.81617L13.384 9.81616L13.3814 9.81514C12.9444 9.64263 12.4722 9.55021 11.9978 9.55021C11.5222 9.55021 11.0528 9.64309 10.6023 9.81205Z" stroke="white"/>
<path d="M12 22.25C11.8661 22.25 11.75 22.1339 11.75 22V10C11.75 9.86614 11.8661 9.75 12 9.75C12.1339 9.75 12.25 9.86614 12.25 10V22C12.25 22.1339 12.1339 22.25 12 22.25Z" stroke="white"/>
<path d="M10.5961 9.82594L5.08858 12.0349C5.0155 12.063 4.92729 12.0558 4.84956 12.004C4.78147 11.9586 4.74219 11.8862 4.74219 11.8V8C4.74219 6.20614 6.19833 4.75 7.99219 4.75H15.9922C17.786 4.75 19.2422 6.20614 19.2422 8V11.8C19.2422 11.8863 19.2029 11.9586 19.1349 12.004L19.1233 12.0117L19.1122 12.02C19.0907 12.0361 19.06 12.05 19.0022 12.05C18.9811 12.05 18.9406 12.0444 18.8923 12.0295L13.3983 9.82594L13.3969 9.82536C12.4975 9.46793 11.5062 9.46879 10.5996 9.82456L10.5995 9.82455L10.5961 9.82594ZM13.5851 9.35369L13.5858 9.35397L18.0658 11.154L18.7522 11.4297V10.69V8C18.7522 6.48386 17.5183 5.25 16.0022 5.25H8.0022C6.48605 5.25 5.2522 6.48386 5.2522 8V10.69V11.4297L5.93861 11.154L10.4154 9.35528C10.9319 9.15633 11.4699 9.04999 12.0022 9.04999C12.5409 9.04999 13.0771 9.14871 13.5851 9.35369Z" stroke="white"/>
<path d="M9.75 4.25V4.75H10.25H13.75H14.25V4.25V3C14.25 2.58386 13.9161 2.25 13.5 2.25H10.5C10.0839 2.25 9.75 2.58386 9.75 3V4.25ZM14.5 5.25H9.5C9.36614 5.25 9.25 5.13386 9.25 5V3C9.25 2.31614 9.81614 1.75 10.5 1.75H13.5C14.1839 1.75 14.75 2.31614 14.75 3V5C14.75 5.13386 14.6339 5.25 14.5 5.25Z" fill="#292D32" stroke="white"/>
</svg>
